<?xml version="1.0" encoding="utf-8"?>
<!-- Generator: Adobe Illustrator 25.4.1, SVG Export Plug-In . SVG Version: 6.00 Build 0)  -->
<svg version="1.1" id="Calque_1" xmlns="http://www.w3.org/2000/svg" xmlns:xlink="http://www.w3.org/1999/xlink" x="0px" y="0px"
	 viewBox="0 0 573 327" style="enable-background:new 0 0 573 327;" xml:space="preserve">
<style type="text/css">
	.st0{fill:#0A51A1;}
	.st1{fill:#FFFFFF;stroke:#FFFFFF;stroke-width:0.5;stroke-miterlimit:10;}
	.st2{fill:#FD1215;}
	.st3{fill:#010203;}
</style>
<g>
	<path class="st0" d="M245.7,162.5C209.9,265.9,26,218.1,67.1,97.1C82.5,52.2,177.6,11.3,222,32.7C253,47,261.1,124.7,245.7,162.5"
		/>
</g>
<g>
	<path class="st1" d="M92.2,103.9l0.7,0.1H120l0.5-0.1c1.6,0,2.5,1,2.8,3c-0.4,1.7-1.4,2.5-3,2.5H94.9v18.6h16.6l2-0.1
		c1.2,0,2.1,0.9,2.5,2.8c0,1.2-0.7,2.1-2.2,2.8l-2.8-0.1h-16V153l0.1,0.8c-0.4,1.7-1.3,2.6-2.6,2.6h-0.3c-1.7-0.3-2.6-1.2-2.6-2.6
		v-47.1c0.3-1.7,1.1-2.6,2.6-2.6V103.9z"/>
	<path class="st1" d="M134.5,104.2h0.5c1.7,0.3,2.5,1.1,2.5,2.2v29.4c0,6.3,1.8,10.5,5.4,12.7c2.3,1.7,4.8,2.6,7.6,2.6
		c5.4,0,9.4-2.8,12.1-8.3c0.6-1.7,0.8-3.5,0.8-5.4v-30.6c0.3-1.7,1.1-2.6,2.5-2.6h0.4c1.7,0.3,2.5,1.1,2.5,2.5v32.1
		c0,5.5-2.6,10.2-7.9,14.3c-3.3,2.2-6.7,3.3-10.1,3.3h-0.9c-5.7,0-10.7-2.8-14.9-8.4c-1.9-3-2.9-6.7-2.9-11.1v-29.6
		C132.4,105.2,133.1,104.2,134.5,104.2z"/>
	<path class="st1" d="M182.5,104.3h0.5c1.2,0,2.2,0.9,3,2.7c1.4,1.5,11.3,14.3,29.9,38.3c0.2,0,0.3,0.1,0.3,0.4l0.1,0.1h0.1v-39.1
		c0.3-1.7,1.1-2.5,2.5-2.5h0.4c1.4,0,2.2,0.9,2.5,2.6v46.8c0,1.5-1,2.4-2.9,2.7c-1,0-2.6-1.6-4.8-4.8L185.5,115v38.8
		c0,1.4-0.9,2.2-2.6,2.5h-0.1c-1.4,0-2.3-0.9-2.6-2.7v-46.2C180.4,105.3,181.2,104.3,182.5,104.3z"/>
</g>
<g>
	<path class="st2" d="M260.3,214.7c-12.3,15.7-34.6-2.4-20.5-15.7C254,185.8,273.5,199.9,260.3,214.7"/>
</g>
<g>
	<path class="st3" d="M288.2,102.5h16.1v3h-12.6v9.6h10.7v3h-10.7v12.7h-3.5V102.5z"/>
	<path class="st3" d="M324.7,130.9l-6.7-12h-5.1v12h-3.5v-28.4h8.8c1.4,0,2.7,0.1,3.9,0.4c1.2,0.3,2.2,0.7,3.1,1.4
		c0.9,0.6,1.5,1.5,2,2.5c0.5,1,0.7,2.2,0.7,3.7c0,2.2-0.6,4-1.7,5.3c-1.1,1.3-2.7,2.2-4.6,2.7l7.1,12.4H324.7z M312.9,115.9h4.7
		c2.2,0,3.9-0.5,5-1.4c1.2-0.9,1.8-2.3,1.8-4.1c0-1.9-0.6-3.2-1.8-3.9c-1.2-0.7-2.8-1.1-5-1.1h-4.7V115.9z"/>
	<path class="st3" d="M346.5,122.2h-10.2l-2.7,8.6H330l9.5-28.4h4l9.5,28.4h-3.8L346.5,122.2z M345.6,119.3l-1.3-4.3
		c-0.5-1.6-1-3.2-1.5-4.7c-0.5-1.6-0.9-3.2-1.4-4.8h-0.2c-0.4,1.6-0.9,3.2-1.3,4.8c-0.5,1.6-0.9,3.1-1.5,4.7l-1.3,4.3H345.6z"/>
	<path class="st3" d="M356.9,102.5h3.7l10.1,17.8l3,5.9h0.2c-0.1-1.4-0.2-2.9-0.3-4.5c-0.1-1.5-0.2-3.1-0.2-4.6v-14.7h3.4v28.4h-3.7
		L363,113l-3-5.8h-0.2c0.1,1.4,0.2,2.9,0.3,4.4s0.1,3,0.1,4.5v14.8h-3.4V102.5z"/>
	<path class="st3" d="M382.9,116.7c0-2.3,0.3-4.3,0.9-6.1c0.6-1.8,1.5-3.4,2.6-4.6c1.1-1.3,2.4-2.2,3.9-2.9c1.5-0.7,3.2-1,5-1
		c1.7,0,3.2,0.4,4.5,1.1c1.3,0.7,2.3,1.5,3.2,2.4l-2,2.3c-0.7-0.8-1.6-1.4-2.5-1.9s-1.9-0.7-3.1-0.7c-1.3,0-2.5,0.3-3.6,0.8
		c-1.1,0.5-2,1.3-2.8,2.3c-0.8,1-1.4,2.2-1.8,3.6c-0.4,1.4-0.6,3-0.6,4.8c0,1.8,0.2,3.4,0.6,4.8s1,2.6,1.7,3.7
		c0.7,1,1.6,1.8,2.7,2.3c1.1,0.5,2.3,0.8,3.6,0.8c1.4,0,2.6-0.3,3.6-0.8c1-0.5,2-1.3,2.9-2.3l2,2.2c-1.1,1.3-2.4,2.3-3.8,3
		c-1.4,0.7-3,1.1-4.8,1.1c-1.8,0-3.4-0.3-4.9-1s-2.8-1.6-3.9-2.9s-1.9-2.8-2.6-4.6S382.9,119,382.9,116.7z"/>
	<path class="st3" d="M408.9,102.5H425v3h-12.6v8.9h10.6v3.1h-10.6v10.3h13v3.1h-16.6V102.5z"/>
</g>
<g>
	<path class="st3" d="M288.4,145.8h2v17.3c0,1.9,0.2,3.5,0.6,4.7c0.4,1.3,1,2.3,1.6,3c0.7,0.8,1.5,1.3,2.4,1.6s1.8,0.5,2.8,0.5
		c1,0,2-0.2,2.9-0.5c0.9-0.3,1.7-0.9,2.4-1.6c0.7-0.8,1.3-1.8,1.7-3c0.4-1.3,0.6-2.8,0.6-4.7v-17.3h1.8v17.6c0,2.2-0.3,4.1-0.8,5.5
		s-1.3,2.6-2.1,3.5c-0.9,0.9-1.9,1.5-3,1.9c-1.1,0.4-2.3,0.5-3.5,0.5c-1.2,0-2.4-0.2-3.5-0.5s-2.1-1-3-1.9c-0.9-0.9-1.6-2.1-2.1-3.5
		c-0.5-1.5-0.8-3.3-0.8-5.5V145.8z"/>
	<path class="st3" d="M315.6,145.8h2l11.9,20.1l3.2,5.7h0.2c-0.1-1.4-0.1-2.8-0.2-4.2c-0.1-1.4-0.1-2.8-0.1-4.2v-17.5h1.9v28.5h-2
		l-11.9-20.1l-3.2-5.7h-0.2c0.1,1.4,0.1,2.7,0.2,4c0.1,1.3,0.1,2.7,0.1,4v17.7h-1.9V145.8z"/>
	<path class="st3" d="M342.7,145.8h2v28.5h-2V145.8z"/>
	<path class="st3" d="M349,145.8h2.1l5.2,16.6c0.5,1.7,1,3.3,1.5,4.8c0.4,1.5,0.9,3,1.5,4.8h0.2c0.3-0.9,0.5-1.7,0.8-2.5
		s0.5-1.5,0.7-2.3c0.2-0.8,0.5-1.5,0.7-2.3c0.2-0.8,0.5-1.6,0.7-2.5l5.2-16.6h2l-9.2,28.5h-2.1L349,145.8z"/>
	<path class="st3" d="M373.9,145.8h15.4v1.7h-13.4v10.8h11.3v1.7h-11.3v12.5h13.9v1.7h-15.8V145.8z"/>
	<path class="st3" d="M411.5,174.3l-7.6-13.1h-6v13.1h-2v-28.5h8.1c1.4,0,2.7,0.1,3.8,0.4c1.1,0.3,2.1,0.7,2.9,1.3
		c0.8,0.6,1.4,1.4,1.9,2.3s0.7,2.1,0.7,3.5c0,2.3-0.6,4.1-1.9,5.4s-3.1,2.1-5.3,2.4l7.8,13.2H411.5z M403.5,159.6
		c2.5,0,4.4-0.5,5.7-1.5s2-2.6,2-4.7c0-2.1-0.7-3.6-2-4.5c-1.3-0.9-3.2-1.3-5.7-1.3h-5.6v12.1H403.5z"/>
	<path class="st3" d="M418.3,169.2c1,1.2,2.2,2.1,3.7,2.8c1.4,0.7,2.9,1,4.6,1c2.2,0,3.9-0.5,5.1-1.6c1.3-1.1,1.9-2.4,1.9-4.1
		c0-0.9-0.1-1.6-0.4-2.2s-0.6-1.1-1.1-1.6c-0.5-0.4-1-0.8-1.6-1.2s-1.3-0.7-1.9-1l-4.3-1.9c-0.6-0.3-1.3-0.6-1.9-1
		c-0.7-0.4-1.3-0.8-1.8-1.4c-0.6-0.6-1-1.2-1.4-2s-0.6-1.7-0.6-2.7c0-1,0.2-2,0.6-2.8c0.4-0.8,1-1.6,1.7-2.2
		c0.7-0.6,1.6-1.1,2.6-1.4c1-0.3,2.1-0.5,3.3-0.5c1.7,0,3.2,0.3,4.5,1c1.3,0.7,2.4,1.5,3.3,2.4l-1.1,1.3c-0.8-0.9-1.8-1.6-2.9-2.1
		c-1.1-0.5-2.4-0.8-3.8-0.8c-1.9,0-3.4,0.5-4.5,1.4s-1.7,2.2-1.7,3.7c0,0.8,0.2,1.5,0.5,2.1c0.3,0.6,0.7,1.1,1.2,1.5s1,0.8,1.6,1.1
		c0.6,0.3,1.1,0.6,1.6,0.8l4.3,1.9c0.8,0.3,1.6,0.7,2.3,1.2c0.7,0.4,1.3,0.9,1.9,1.5c0.5,0.6,1,1.3,1.3,2.1c0.3,0.8,0.5,1.7,0.5,2.8
		c0,1.1-0.2,2.1-0.6,3c-0.4,0.9-1,1.7-1.8,2.4c-0.8,0.7-1.7,1.2-2.8,1.6c-1.1,0.4-2.3,0.6-3.7,0.6c-2,0-3.9-0.4-5.5-1.2
		c-1.6-0.8-2.9-1.8-4.1-3.1L418.3,169.2z"/>
	<path class="st3" d="M441.5,145.8h2v28.5h-2V145.8z"/>
	<path class="st3" d="M457.8,147.6h-9v-1.7h19.9v1.7h-9v26.8h-2V147.6z"/>
	<path class="st3" d="M474.1,145.8h15.4v1.7h-13.4v10.8h11.3v1.7h-11.3v12.5h13.9v1.7h-15.8V145.8z M482.1,143.7h-1.7l3.9-4.6h2.5
		L482.1,143.7z"/>
</g>
<g>
	<path class="st3" d="M288.5,190.7h2l11.9,20.1l3.2,5.7h0.2c-0.1-1.4-0.1-2.8-0.2-4.2c-0.1-1.4-0.1-2.8-0.1-4.2v-17.5h1.9v28.5h-2
		l-11.9-20.1l-3.2-5.7h-0.2c0.1,1.4,0.1,2.7,0.2,4c0.1,1.3,0.1,2.7,0.1,4v17.7h-1.9V190.7z"/>
	<path class="st3" d="M315.6,190.7h2V208c0,1.9,0.2,3.5,0.6,4.7c0.4,1.3,1,2.3,1.6,3c0.7,0.8,1.5,1.3,2.4,1.6s1.8,0.5,2.8,0.5
		c1,0,2-0.2,2.9-0.5c0.9-0.3,1.7-0.9,2.4-1.6c0.7-0.8,1.3-1.8,1.7-3c0.4-1.3,0.6-2.8,0.6-4.7v-17.3h1.8v17.6c0,2.2-0.3,4.1-0.8,5.5
		s-1.3,2.6-2.1,3.5c-0.9,0.9-1.9,1.5-3,1.9c-1.1,0.4-2.3,0.5-3.5,0.5c-1.2,0-2.4-0.2-3.5-0.5s-2.1-1-3-1.9c-0.9-0.9-1.6-2.1-2.1-3.5
		c-0.5-1.5-0.8-3.3-0.8-5.5V190.7z"/>
	<path class="st3" d="M342.7,190.7h2.8l5.9,16.7l2.2,6.3h0.2l2.1-6.3l5.9-16.7h2.8v28.5h-1.9v-18.7c0-1.2,0-2.5,0.1-3.8
		c0.1-1.4,0.1-2.7,0.2-3.9h-0.2l-2.2,6.3l-6,17h-1.8l-6.1-17l-2.2-6.3h-0.2c0.1,1.2,0.1,2.5,0.2,3.9c0.1,1.4,0.1,2.6,0.1,3.8v18.7
		h-1.8V190.7z"/>
	<path class="st3" d="M372.9,190.7h15.4v1.7h-13.4v10.8h11.3v1.7h-11.3v12.5h13.9v1.7h-15.8V190.7z M380.9,188.5h-1.7l3.9-4.6h2.5
		L380.9,188.5z"/>
	<path class="st3" d="M410.4,219.2l-7.6-13.1h-6v13.1h-2v-28.5h8.1c1.4,0,2.7,0.1,3.8,0.4c1.1,0.3,2.1,0.7,2.9,1.3
		c0.8,0.6,1.4,1.4,1.9,2.3s0.7,2.1,0.7,3.5c0,2.3-0.6,4.1-1.9,5.4c-1.3,1.3-3.1,2.1-5.3,2.4l7.8,13.2H410.4z M402.4,204.4
		c2.5,0,4.4-0.5,5.7-1.5c1.3-1,2-2.6,2-4.7c0-2.1-0.7-3.6-2-4.5s-3.2-1.3-5.7-1.3h-5.6v12.1H402.4z"/>
	<path class="st3" d="M418.8,190.7h2v28.5h-2V190.7z"/>
	<path class="st3" d="M450.5,225.4c-0.4,0.1-0.9,0.2-1.5,0.3c-0.6,0.1-1.3,0.2-2,0.2c-2.4,0-4.3-0.6-5.9-1.8
		c-1.6-1.2-2.7-2.7-3.4-4.5c-1.5-0.1-2.9-0.6-4.2-1.4c-1.3-0.8-2.4-1.8-3.3-3.1c-0.9-1.3-1.6-2.8-2.2-4.6c-0.5-1.8-0.8-3.7-0.8-5.8
		c0-2.2,0.3-4.3,0.9-6.1c0.6-1.8,1.4-3.3,2.4-4.6c1-1.3,2.2-2.3,3.7-2.9c1.4-0.7,3-1,4.7-1c1.7,0,3.3,0.3,4.7,1
		c1.4,0.7,2.6,1.7,3.7,2.9c1,1.3,1.8,2.8,2.4,4.6c0.6,1.8,0.9,3.8,0.9,6.1c0,2.1-0.3,4.1-0.8,5.8c-0.5,1.8-1.2,3.3-2.2,4.6
		c-0.9,1.3-2,2.3-3.3,3.1c-1.3,0.8-2.7,1.2-4.3,1.4c0.7,1.4,1.6,2.5,2.8,3.3c1.2,0.7,2.7,1.1,4.5,1.1c0.7,0,1.2,0,1.6-0.1
		c0.4-0.1,0.8-0.2,1.2-0.3L450.5,225.4z M429.3,204.8c0,2,0.2,3.8,0.7,5.4c0.5,1.6,1.1,3,1.9,4.2s1.8,2,3,2.7s2.5,1,3.9,1
		s2.7-0.3,3.9-1s2.2-1.5,3-2.7c0.8-1.1,1.5-2.5,1.9-4.2c0.5-1.6,0.7-3.4,0.7-5.4c0-2-0.2-3.7-0.7-5.3c-0.5-1.6-1.1-2.9-1.9-4
		c-0.8-1.1-1.8-2-3-2.6c-1.2-0.6-2.5-0.9-3.9-0.9s-2.7,0.3-3.9,0.9c-1.2,0.6-2.2,1.5-3,2.6s-1.5,2.5-1.9,4
		C429.5,201.1,429.3,202.9,429.3,204.8z"/>
	<path class="st3" d="M456.8,190.7h2V208c0,1.9,0.2,3.5,0.6,4.7c0.4,1.3,1,2.3,1.6,3s1.5,1.3,2.4,1.6s1.8,0.5,2.8,0.5
		c1,0,2-0.2,2.9-0.5c0.9-0.3,1.7-0.9,2.4-1.6c0.7-0.8,1.3-1.8,1.7-3c0.4-1.3,0.6-2.8,0.6-4.7v-17.3h1.8v17.6c0,2.2-0.3,4.1-0.8,5.5
		c-0.5,1.5-1.3,2.6-2.1,3.5c-0.9,0.9-1.9,1.5-3,1.9c-1.1,0.4-2.3,0.5-3.5,0.5c-1.2,0-2.4-0.2-3.5-0.5c-1.1-0.4-2.1-1-3-1.9
		c-0.9-0.9-1.6-2.1-2.1-3.5s-0.8-3.3-0.8-5.5V190.7z"/>
	<path class="st3" d="M483.9,190.7h15.4v1.7h-13.4v10.8h11.3v1.7h-11.3v12.5h13.9v1.7h-15.8V190.7z"/>
</g>
<g>
	<path class="st1" d="M92.2,103.9l0.7,0.1H120l0.5-0.1c1.6,0,2.5,1,2.8,3c-0.4,1.7-1.4,2.5-3,2.5H94.9v18.6h16.6l2-0.1
		c1.2,0,2.1,0.9,2.5,2.8c0,1.2-0.7,2.1-2.2,2.8l-2.8-0.1h-16V153l0.1,0.8c-0.4,1.7-1.3,2.6-2.6,2.6h-0.3c-1.7-0.3-2.6-1.2-2.6-2.6
		v-47.1c0.3-1.7,1.1-2.6,2.6-2.6V103.9z"/>
	<path class="st1" d="M134.5,104.2h0.5c1.7,0.3,2.5,1.1,2.5,2.2v29.4c0,6.3,1.8,10.5,5.4,12.7c2.3,1.7,4.8,2.6,7.6,2.6
		c5.4,0,9.4-2.8,12.1-8.3c0.6-1.7,0.8-3.5,0.8-5.4v-30.6c0.3-1.7,1.1-2.6,2.5-2.6h0.4c1.7,0.3,2.5,1.1,2.5,2.5v32.1
		c0,5.5-2.6,10.2-7.9,14.3c-3.3,2.2-6.7,3.3-10.1,3.3h-0.9c-5.7,0-10.7-2.8-14.9-8.4c-1.9-3-2.9-6.7-2.9-11.1v-29.6
		C132.4,105.2,133.1,104.2,134.5,104.2z"/>
	<path class="st1" d="M182.5,104.3h0.5c1.2,0,2.2,0.9,3,2.7c1.4,1.5,11.3,14.3,29.9,38.3c0.2,0,0.3,0.1,0.3,0.4l0.1,0.1h0.1v-39.1
		c0.3-1.7,1.1-2.5,2.5-2.5h0.4c1.4,0,2.2,0.9,2.5,2.6v46.8c0,1.5-1,2.4-2.9,2.7c-1,0-2.6-1.6-4.8-4.8L185.5,115v38.8
		c0,1.4-0.9,2.2-2.6,2.5h-0.1c-1.4,0-2.3-0.9-2.6-2.7v-46.2C180.4,105.3,181.2,104.3,182.5,104.3z"/>
</g>
<g>
	<path class="st0" d="M84.1,255.7c-0.1-0.1-0.4-0.4-1-0.7c-0.5-0.3-1.2-0.7-2.1-1.1s-1.7-0.7-2.7-1c-1-0.3-2-0.4-2.9-0.4
		c-2.7,0-4,0.9-4,2.7c0,0.5,0.1,1,0.4,1.4c0.3,0.4,0.7,0.7,1.3,1c0.6,0.3,1.3,0.6,2.1,0.8c0.9,0.2,1.8,0.5,3,0.8
		c1.6,0.4,3,0.9,4.2,1.4c1.3,0.5,2.3,1.1,3.2,1.9s1.5,1.7,2,2.7s0.7,2.4,0.7,3.8c0,1.8-0.3,3.4-1,4.6c-0.7,1.3-1.6,2.3-2.7,3.1
		c-1.1,0.8-2.4,1.3-3.9,1.7s-3,0.5-4.5,0.5c-1.2,0-2.4-0.1-3.7-0.3c-1.3-0.2-2.5-0.5-3.7-0.8c-1.2-0.4-2.3-0.8-3.5-1.3
		c-1.1-0.5-2.1-1.1-3.1-1.7l3.3-6.5c0.1,0.2,0.5,0.4,1.2,0.9c0.7,0.4,1.5,0.9,2.5,1.3c1,0.4,2.1,0.8,3.3,1.1
		c1.2,0.3,2.5,0.5,3.7,0.5c2.7,0,4-0.8,4-2.4c0-0.6-0.2-1.1-0.6-1.5s-0.9-0.8-1.6-1.1c-0.7-0.3-1.5-0.6-2.5-0.9
		c-1-0.3-2-0.6-3.1-0.9c-1.5-0.5-2.8-1-3.9-1.5c-1.1-0.5-2-1.2-2.7-1.9c-0.7-0.7-1.3-1.5-1.6-2.4c-0.4-0.9-0.5-2-0.5-3.2
		c0-1.7,0.3-3.2,1-4.5c0.6-1.3,1.5-2.4,2.6-3.3c1.1-0.9,2.4-1.6,3.8-2c1.4-0.5,3-0.7,4.6-0.7c1.1,0,2.2,0.1,3.3,0.3
		c1.1,0.2,2.2,0.5,3.2,0.8c1,0.3,1.9,0.7,2.8,1.1s1.7,0.9,2.4,1.3L84.1,255.7z"/>
	<path class="st0" d="M103.7,279.2c-2,0-3.8-0.3-5.4-1c-1.6-0.7-3-1.5-4.1-2.7c-1.1-1.1-2-2.4-2.5-3.9c-0.6-1.5-0.9-3-0.9-4.6
		c0-1.7,0.3-3.4,0.9-4.9s1.4-2.9,2.5-4.1c1.1-1.2,2.5-2.1,4.1-2.7c1.6-0.7,3.4-1,5.5-1c2,0,3.9,0.3,5.4,1c1.6,0.7,2.9,1.6,4,2.7
		c1.1,1.1,1.9,2.5,2.5,4c0.6,1.5,0.8,3.1,0.8,4.7c0,0.4,0,0.8,0,1.3c0,0.4-0.1,0.8-0.1,1.1H98.5c0.1,1.6,0.7,2.8,1.8,3.7
		c1.1,0.8,2.3,1.3,3.6,1.3c1.1,0,2.1-0.3,3.1-0.8c1-0.5,1.7-1.2,2-2.1l6.2,1.7c-0.9,1.9-2.4,3.4-4.4,4.6S106.5,279.2,103.7,279.2z
		 M108.8,264.4c-0.2-1.5-0.7-2.7-1.6-3.6c-0.9-0.9-2.1-1.3-3.5-1.3c-1.4,0-2.6,0.5-3.5,1.4c-0.9,0.9-1.5,2.1-1.6,3.6H108.8z"/>
	<path class="st0" d="M132.1,278.7v-16.5H129v-5.5h3.1v-2c0-1.5,0.2-2.9,0.6-4.1c0.4-1.2,1-2.3,1.7-3.1c0.7-0.9,1.6-1.5,2.7-2
		s2.2-0.7,3.4-0.7c2,0,4,0.5,6.3,1.4l-1.3,5.5c-0.5-0.2-1-0.4-1.6-0.5c-0.6-0.1-1.2-0.2-1.7-0.2c-1.8,0-2.7,1.1-2.7,3.4v2.2h5.6v5.5
		h-5.6v16.5H132.1z"/>
	<path class="st0" d="M158.4,279.2c-2,0-3.9-0.3-5.5-1c-1.6-0.7-3-1.6-4.1-2.7c-1.1-1.1-1.9-2.5-2.5-4c-0.6-1.5-0.8-3.1-0.8-4.7
		c0-1.6,0.3-3.2,0.8-4.7c0.6-1.5,1.4-2.8,2.5-4c1.1-1.1,2.5-2.1,4.1-2.7c1.6-0.7,3.4-1,5.5-1c2,0,3.9,0.3,5.4,1
		c1.6,0.7,2.9,1.6,4,2.7c1.1,1.1,1.9,2.5,2.5,4c0.6,1.5,0.9,3.1,0.9,4.7c0,1.6-0.3,3.2-0.8,4.7c-0.6,1.5-1.4,2.8-2.5,4
		c-1.1,1.1-2.5,2.1-4.1,2.7C162.3,278.9,160.4,279.2,158.4,279.2z M153,266.7c0,1.9,0.5,3.4,1.5,4.6c1,1.1,2.3,1.7,3.8,1.7
		c0.8,0,1.5-0.2,2.1-0.5c0.6-0.3,1.2-0.7,1.7-1.3c0.5-0.5,0.8-1.2,1.1-2c0.3-0.8,0.4-1.6,0.4-2.5c0-1.9-0.5-3.4-1.5-4.6
		c-1-1.1-2.3-1.7-3.8-1.7c-0.8,0-1.5,0.2-2.1,0.5c-0.7,0.3-1.2,0.7-1.7,1.3s-0.8,1.2-1.1,2C153.2,265,153,265.8,153,266.7z"/>
	<path class="st0" d="M190.1,261c-1.8,0-3.4,0.3-4.8,0.9c-1.4,0.5-2.5,1.4-3.1,2.5v14.4h-7.3v-24h6.7v4.9c0.8-1.6,1.9-2.9,3.2-3.8
		c1.3-0.9,2.7-1.4,4.1-1.4c0.3,0,0.6,0,0.7,0s0.3,0,0.5,0V261z"/>
	<path class="st0" d="M231.2,278.7h-7.3v-13.5c0-1.6-0.3-2.7-0.9-3.5c-0.6-0.7-1.3-1.1-2.2-1.1c-0.5,0-1,0.1-1.5,0.3s-1,0.5-1.4,0.9
		c-0.4,0.4-0.8,0.8-1.2,1.4c-0.4,0.5-0.6,1.1-0.8,1.7v13.8h-7.3v-13.5c0-1.6-0.3-2.7-0.9-3.5c-0.6-0.7-1.3-1.1-2.2-1.1
		c-1,0-1.9,0.4-2.9,1.2s-1.6,1.8-2,3.1v13.8h-7.3v-24h6.6v4c0.9-1.5,2.1-2.6,3.6-3.3c1.5-0.8,3.3-1.1,5.3-1.1c1,0,1.9,0.1,2.6,0.4
		c0.7,0.2,1.4,0.6,1.9,1c0.5,0.4,1,0.9,1.3,1.5c0.3,0.6,0.6,1.2,0.7,1.8c0.9-1.5,2.1-2.6,3.6-3.5c1.5-0.8,3.2-1.2,5.1-1.2
		c1.5,0,2.8,0.3,3.7,0.8c0.9,0.6,1.7,1.3,2.2,2.2c0.5,0.9,0.9,1.9,1,3c0.2,1.1,0.3,2.1,0.3,3.1V278.7z"/>
	<path class="st0" d="M247.5,279.2c-2,0-3.8-0.3-5.4-1c-1.6-0.7-3-1.5-4.1-2.7c-1.1-1.1-2-2.4-2.5-3.9c-0.6-1.5-0.9-3-0.9-4.6
		c0-1.7,0.3-3.4,0.9-4.9s1.4-2.9,2.5-4.1c1.1-1.2,2.5-2.1,4.1-2.7c1.6-0.7,3.4-1,5.5-1c2,0,3.9,0.3,5.4,1c1.6,0.7,2.9,1.6,4,2.7
		c1.1,1.1,1.9,2.5,2.5,4c0.6,1.5,0.8,3.1,0.8,4.7c0,0.4,0,0.8,0,1.3c0,0.4-0.1,0.8-0.1,1.1h-17.8c0.1,1.6,0.7,2.8,1.8,3.7
		c1.1,0.8,2.3,1.3,3.6,1.3c1.1,0,2.1-0.3,3.1-0.8c1-0.5,1.7-1.2,2-2.1l6.2,1.7c-0.9,1.9-2.4,3.4-4.4,4.6S250.3,279.2,247.5,279.2z
		 M252.6,264.4c-0.2-1.5-0.7-2.7-1.6-3.6c-0.9-0.9-2.1-1.3-3.5-1.3c-1.4,0-2.6,0.5-3.5,1.4c-0.9,0.9-1.5,2.1-1.6,3.6H252.6z"/>
	<path class="st0" d="M278.9,261c-1.8,0-3.4,0.3-4.8,0.9c-1.4,0.5-2.5,1.4-3.1,2.5v14.4h-7.3v-24h6.7v4.9c0.8-1.6,1.9-2.9,3.2-3.8
		c1.3-0.9,2.7-1.4,4.1-1.4c0.3,0,0.6,0,0.7,0s0.3,0,0.5,0V261z"/>
	<path class="st0" d="M303.1,279.2c-2,0-3.8-0.3-5.4-1c-1.6-0.7-3-1.5-4.1-2.7c-1.1-1.1-2-2.4-2.5-3.9c-0.6-1.5-0.9-3-0.9-4.6
		c0-1.7,0.3-3.4,0.9-4.9s1.4-2.9,2.5-4.1c1.1-1.2,2.5-2.1,4.1-2.7c1.6-0.7,3.4-1,5.5-1c2,0,3.9,0.3,5.4,1c1.6,0.7,2.9,1.6,4,2.7
		c1.1,1.1,1.9,2.5,2.5,4c0.6,1.5,0.8,3.1,0.8,4.7c0,0.4,0,0.8,0,1.3c0,0.4-0.1,0.8-0.1,1.1h-17.8c0.1,1.6,0.7,2.8,1.8,3.7
		c1.1,0.8,2.3,1.3,3.6,1.3c1.1,0,2.1-0.3,3.1-0.8c1-0.5,1.7-1.2,2-2.1l6.2,1.7c-0.9,1.9-2.4,3.4-4.4,4.6S305.8,279.2,303.1,279.2z
		 M308.2,264.4c-0.2-1.5-0.7-2.7-1.6-3.6c-0.9-0.9-2.1-1.3-3.5-1.3c-1.4,0-2.6,0.5-3.5,1.4c-0.9,0.9-1.5,2.1-1.6,3.6H308.2z"/>
	<path class="st0" d="M342.4,278.7h-7.3v-13.5c0-1.6-0.3-2.7-0.9-3.5c-0.6-0.7-1.4-1.1-2.4-1.1c-0.5,0-1,0.1-1.6,0.3
		c-0.5,0.2-1,0.5-1.5,0.9c-0.5,0.4-0.9,0.8-1.3,1.4c-0.4,0.5-0.7,1.1-0.9,1.7v13.8h-7.3v-24h6.6v4c0.9-1.4,2.1-2.5,3.8-3.3
		s3.5-1.2,5.6-1.2c1.6,0,2.8,0.3,3.8,0.8c0.9,0.6,1.7,1.3,2.2,2.2c0.5,0.9,0.9,1.9,1,3c0.2,1.1,0.3,2.1,0.3,3.1V278.7z"/>
	<path class="st0" d="M357.8,245.3h7.3v24.9c0,1.8,0.8,2.7,2.3,2.7c0.4,0,0.8-0.1,1.2-0.2c0.4-0.1,0.8-0.3,1.2-0.5l1,5.5
		c-0.9,0.4-2,0.8-3.2,1c-1.2,0.2-2.3,0.4-3.3,0.4c-2.1,0-3.7-0.5-4.9-1.6c-1.1-1.1-1.7-2.7-1.7-4.8V245.3z"/>
	<path class="st0" d="M373.3,251.9v-6.6h7.3v6.6H373.3z M373.3,278.7v-24h7.3v24H373.3z"/>
	<path class="st0" d="M400.1,279.2c-1.8,0-3.4-0.4-4.8-1.2s-2.5-1.9-3.3-3.3v4h-6.4v-33.4h7.3v13.3c0.8-1.4,1.9-2.5,3.2-3.2
		s2.9-1.2,4.7-1.2c1.5,0,2.9,0.3,4.2,1c1.3,0.7,2.4,1.6,3.3,2.7c0.9,1.1,1.6,2.5,2.2,4c0.5,1.5,0.8,3.2,0.8,4.9s-0.3,3.4-0.8,4.9
		c-0.6,1.5-1.4,2.8-2.4,3.9c-1,1.1-2.2,2-3.6,2.6C403.1,278.9,401.7,279.2,400.1,279.2z M398,273c0.9,0,1.6-0.2,2.3-0.5
		c0.7-0.3,1.3-0.8,1.8-1.3s0.9-1.2,1.2-1.9c0.3-0.7,0.4-1.6,0.4-2.5c0-0.9-0.1-1.7-0.4-2.5c-0.3-0.8-0.6-1.5-1.1-2
		c-0.5-0.6-1-1-1.7-1.4c-0.7-0.3-1.4-0.5-2.2-0.5c-1.2,0-2.2,0.4-3.2,1.2c-1,0.8-1.7,1.8-2.2,3v5c0.5,1,1.2,1.9,2.1,2.5
		C396,272.7,397,273,398,273z"/>
	<path class="st0" d="M426.4,279.2c-2,0-3.8-0.3-5.4-1c-1.6-0.7-3-1.5-4.1-2.7c-1.1-1.1-2-2.4-2.5-3.9c-0.6-1.5-0.9-3-0.9-4.6
		c0-1.7,0.3-3.4,0.9-4.9s1.4-2.9,2.5-4.1c1.1-1.2,2.5-2.1,4.1-2.7c1.6-0.7,3.4-1,5.5-1c2,0,3.9,0.3,5.4,1c1.6,0.7,2.9,1.6,4,2.7
		c1.1,1.1,1.9,2.5,2.5,4c0.6,1.5,0.8,3.1,0.8,4.7c0,0.4,0,0.8,0,1.3c0,0.4-0.1,0.8-0.1,1.1h-17.8c0.1,1.6,0.7,2.8,1.8,3.7
		c1.1,0.8,2.3,1.3,3.6,1.3c1.1,0,2.1-0.3,3.1-0.8c1-0.5,1.7-1.2,2-2.1l6.2,1.7c-0.9,1.9-2.4,3.4-4.4,4.6S429.2,279.2,426.4,279.2z
		 M431.5,264.4c-0.2-1.5-0.7-2.7-1.6-3.6c-0.9-0.9-2.1-1.3-3.5-1.3c-1.4,0-2.6,0.5-3.5,1.4c-0.9,0.9-1.5,2.1-1.6,3.6H431.5z"/>
	<path class="st0" d="M457.9,261c-1.8,0-3.4,0.3-4.8,0.9c-1.4,0.5-2.5,1.4-3.1,2.5v14.4h-7.3v-24h6.7v4.9c0.8-1.6,1.9-2.9,3.2-3.8
		c1.3-0.9,2.7-1.4,4.1-1.4c0.3,0,0.6,0,0.7,0s0.3,0,0.5,0V261z"/>
	<path class="st0" d="M476.5,277.4c-1,0.4-2.2,0.8-3.5,1.2c-1.3,0.4-2.6,0.5-3.9,0.5c-0.9,0-1.8-0.1-2.6-0.3
		c-0.8-0.2-1.5-0.6-2.1-1.1c-0.6-0.5-1.1-1.2-1.4-2c-0.4-0.8-0.5-1.8-0.5-3v-12.5h-3.1v-5.5h3.1V247h7.3v7.6h4.9v5.5h-4.9v10
		c0,0.8,0.2,1.4,0.6,1.7c0.4,0.4,0.9,0.5,1.5,0.5c0.5,0,1.1-0.1,1.7-0.3c0.6-0.2,1.1-0.4,1.5-0.6L476.5,277.4z"/>
	<path class="st0" d="M490.2,279.2c-2,0-3.8-0.3-5.4-1c-1.6-0.7-3-1.5-4.1-2.7c-1.1-1.1-2-2.4-2.5-3.9c-0.6-1.5-0.9-3-0.9-4.6
		c0-1.7,0.3-3.4,0.9-4.9s1.4-2.9,2.5-4.1c1.1-1.2,2.5-2.1,4.1-2.7c1.6-0.7,3.4-1,5.5-1c2,0,3.9,0.3,5.4,1c1.6,0.7,2.9,1.6,4,2.7
		c1.1,1.1,1.9,2.5,2.5,4c0.6,1.5,0.8,3.1,0.8,4.7c0,0.4,0,0.8,0,1.3c0,0.4-0.1,0.8-0.1,1.1h-17.8c0.1,1.6,0.7,2.8,1.8,3.7
		c1.1,0.8,2.3,1.3,3.6,1.3c1.1,0,2.1-0.3,3.1-0.8c1-0.5,1.7-1.2,2-2.1l6.2,1.7c-0.9,1.9-2.4,3.4-4.4,4.6S493,279.2,490.2,279.2z
		 M495.3,264.4c-0.2-1.5-0.7-2.7-1.6-3.6c-0.9-0.9-2.1-1.3-3.5-1.3c-1.4,0-2.6,0.5-3.5,1.4c-0.9,0.9-1.5,2.1-1.6,3.6H495.3z
		 M492.3,252.5l-4.7-1.3l2.4-6h6.6L492.3,252.5z"/>
</g>
</svg>
