<svg xmlns="http://www.w3.org/2000/svg" width="437.276" height="192.706" viewBox="0 0 437.276 192.706"><path d="M95.682 186.053c-35.724-.383-73.194-21.578-84.87-45.246C-.864 117.14-.442 113.851.339 96.97c-2.23-46.502 37.924-72.585 78.486-86.92 45.912-18.162 94.31-14.466 102.425 34.147 3.588 21.497 7.46 56.443.648 80.106-13.115 45.558-50.491 62.134-86.216 61.751z" fill="#3775be"/><path d="M117.961 122.162V77.465l35.276 45.4v-45.4m-81.726 0v30.7s.094 14.709 15.134 14.709c15.04 0 15.134-14.71 15.134-14.71V77.466m-71.262 23.136h20.408m-20.76 21.913v-45.05h27.446" fill="none" stroke="#fff" stroke-width="6" stroke-linecap="round" stroke-linejoin="round"/><path d="M169.07 180.683c-3.024-6.079 3.703-15.534 8.728-17.905 5.026-2.371 10.078-3.75 14.159-1.078 4.081 2.673 6.623 7.278 5.856 12.693-.768 5.416-6.3 12.245-12.575 13.67-6.276 1.427-13.145-1.301-16.168-7.38z" fill="#e7271a"/><text style="line-height:0%" x="244.29" y="95.26" transform="scale(.93898 1.06498)" font-weight="400" font-family="sans-serif" letter-spacing="0" word-spacing="0" fill="#252525"><tspan x="244.29" y="95.26" style="line-height:104.99999523%;-inkscape-font-specification:Ubuntu" font-weight="700" font-size="37.5" font-family="Ubuntu" letter-spacing="-.86">FRANCE</tspan><tspan x="244.29" y="134.635" style="line-height:104.99999523%;-inkscape-font-specification:Ubuntu" font-size="37.5" font-family="Ubuntu" letter-spacing=".7">UNIVERSITÉ</tspan><tspan x="244.29" y="174.01" style="line-height:104.99999523%;-inkscape-font-specification:Ubuntu" font-size="37.5" font-family="Ubuntu" letter-spacing=".7">NUMÉRIQUE</tspan></text></svg>