<?xml version="1.0" encoding="utf-8"?>
<!-- Generator: Adobe Illustrator 23.1.0, SVG Export Plug-In . SVG Version: 6.00 Build 0)  -->
<svg version="1.1" id="Layer_1" xmlns="http://www.w3.org/2000/svg" xmlns:xlink="http://www.w3.org/1999/xlink" x="0px" y="0px"
	 viewBox="0 0 104 33" style="enable-background:new 0 0 104 33;" xml:space="preserve">
<style type="text/css">
	.st0{clip-path:url(#SVGID_2_);}
	.st1{fill:#231F20;}
	.st2{fill:#0857FF;}
</style>
<g>
	<defs>
		<rect id="SVGID_1_" y="0" width="104" height="33"/>
	</defs>
	<clipPath id="SVGID_2_">
		<use xlink:href="#SVGID_1_"  style="overflow:visible;"/>
	</clipPath>
	<g class="st0">
		<g>
			<g>
				<path class="st2" d="M74.42,24.64c0,4.57,3.69,8.28,8.27,8.28h0.09c3.14,0,6.29-1.38,8.63-3.34v2.6h12.4v-1.99h-0.47
					c-1.27,0-2.3-1.03-2.3-2.3V5.03c0-1.27,1.03-2.3,2.3-2.3h0.47v-2H91.4V23.4c0,3.35-7.3,5.12-7.3-0.31V8.36
					c0-4.6-3.73-8.33-8.33-8.33h-0.09h-5.14V2c1.91,0.41,3.9,3.09,3.9,6.75l0,0L74.42,24.64z"/>
				<path class="st2" d="M29.39,8.31c0-4.57-3.69-8.28-8.27-8.28h-0.09c-3.14,0-6.29,1.38-8.63,3.34V0.73H0v2h0.47
					c1.28,0,2.3,1.03,2.3,2.3v22.86c0,1.28-1.03,2.3-2.3,2.3H0v2h12.4V9.55c0-3.35,7.3-5.12,7.3,0.31V24.6
					c0,4.6,3.74,8.33,8.33,8.33h0.09h5.14v-1.97c-1.91-0.41-3.9-3.09-3.9-6.74l0,0L29.39,8.31z"/>
				<path class="st2" d="M66.78,24.11L66.78,24.11v-13.2c0-4.59-2.91-8.76-7.29-10.14C57.92,0.27,56.24,0,54.5,0
					c-3.66,0-7.03,1.2-9.76,3.22c0.02,0.03,0.02,0.03,0,0C43.18,1.25,40.79,0,38.1,0H38h-5.24v2c1.94,0.42,3.96,3.14,3.96,6.84l0,0
					v13.2c0,4.6,2.91,8.76,7.29,10.14c1.58,0.5,3.25,0.77,4.98,0.77c3.66,0,7.04-1.2,9.77-3.22c1.55,1.95,3.94,3.22,6.63,3.22h0.1
					h5.24v-2C68.8,30.54,66.78,27.82,66.78,24.11z M57.61,27.81c-0.7,0.18-1.43,0.28-2.19,0.28c-4.88,0-8.85-3.17-8.85-8.05l0,0
					V8.46c0-1.18-0.24-2.29-0.68-3.32l0,0c0.7-0.18,1.44-0.28,2.19-0.28c4.88,0,8.85,3.17,8.85,8.05l0,0v11.58
					c0,1.18,0.25,2.31,0.69,3.33C57.62,27.82,57.62,27.81,57.61,27.81z"/>
			</g>
		</g>
	</g>
</g>
</svg>
