<svg xmlns="http://www.w3.org/2000/svg" xmlns:xlink="http://www.w3.org/1999/xlink" viewBox="0 0 104 33"><defs><path id="a" d="M0 0h104v33H0z"/></defs><clipPath id="b"><use xlink:href="#a" overflow="visible"/></clipPath><g clip-path="url(#b)"><path d="M74.42 24.64c0 4.57 3.69 8.28 8.27 8.28h.09c3.14 0 6.29-1.38 8.63-3.34v2.6h12.4v-1.99h-.47a2.3 2.3 0 01-2.3-2.3V5.03a2.3 2.3 0 012.3-2.3h.47v-2H91.4V23.4c0 3.35-7.3 5.12-7.3-.31V8.36c0-4.6-3.73-8.33-8.33-8.33h-5.23V2c1.91.41 3.9 3.09 3.9 6.75l-.02 15.89zM29.39 8.31c0-4.57-3.69-8.28-8.27-8.28h-.09c-3.14 0-6.29 1.38-8.63 3.34V.73H0v2h.47c1.28 0 2.3 1.03 2.3 2.3v22.86c0 1.28-1.03 2.3-2.3 2.3H0v2h12.4V9.55c0-3.35 7.3-5.12 7.3.31V24.6c0 4.6 3.74 8.33 8.33 8.33h5.23v-1.97c-1.91-.41-3.9-3.09-3.9-6.74l.03-15.91zm37.39 15.8v-13.2c0-4.59-2.91-8.76-7.29-10.14C57.92.27 56.24 0 54.5 0c-3.66 0-7.03 1.2-9.76 3.22.02.03.02.03 0 0A8.435 8.435 0 0038.1 0h-5.34v2c1.94.42 3.96 3.14 3.96 6.84v13.2c0 4.6 2.91 8.76 7.29 10.14 1.58.5 3.25.77 4.98.77 3.66 0 7.04-1.2 9.77-3.22 1.55 1.95 3.94 3.22 6.63 3.22h5.34v-2c-1.93-.41-3.95-3.13-3.95-6.84zm-9.17 3.7c-.7.18-1.43.28-2.19.28-4.88 0-8.85-3.17-8.85-8.05V8.46c0-1.18-.24-2.29-.68-3.32.7-.18 1.44-.28 2.19-.28 4.88 0 8.85 3.17 8.85 8.05v11.58c0 1.18.25 2.31.69 3.33 0 0 0-.01-.01-.01z" fill="#0857ff"/></g></svg>