<svg xmlns="http://www.w3.org/2000/svg" preserveAspectRatio="none" width="100%" height="100%" viewBox="0 0 1399 75.262"><path d="M1073.502 0c-153.246-.018-298.7 21.395-436.363 64.238C360.56 82.908 148.18 71.541 0 30.135v45.127h1399V30.135C1286.853 10.057 1178.354.012 1073.502 0z" opacity=".3" fill="#fff" fill-rule="evenodd"/><path d="M1064.295 7.002c-116.583 0-238.182 11.51-364.795 34.53-107.388 19.525-211.167 30.765-311.34 33.73H1399v-33.73c-106.553-23.02-218.122-34.53-334.705-34.53zM0 41.532v33.73h281.947C184.357 72.297 90.374 61.057 0 41.532z" opacity=".6" fill="#fff" fill-rule="evenodd"/><path d="M1066.348 24C949.764 24 827.482 31.693 699.5 47.08 443.537 77.855 210.37 77.855 0 47.08v28.182h1399V47.08C1293.815 31.693 1182.931 24 1066.348 24z" fill="#fff" fill-rule="evenodd"/></svg>
