<svg xmlns="http://www.w3.org/2000/svg" preserveAspectRatio="none" width="100%" height="100%" viewBox="0 0 1399 75.262"><g fill="#232323" fill-rule="evenodd"><path d="M325.498 0C220.646.012 112.147 10.057 0 30.135v45.127h1399V30.135c-148.18 41.406-360.56 52.773-637.139 34.103C624.198 21.395 478.744-.018 325.498 0z" opacity=".3"/><path d="M334.705 7.002C218.122 7.002 106.553 18.512 0 41.532v33.73h1010.84c-100.173-2.965-203.952-14.205-311.34-33.73-126.614-23.02-248.212-34.53-364.795-34.53zM1399 41.532c-90.374 19.525-184.358 30.765-281.947 33.73H1399z" opacity=".6"/><path d="M332.652 24C216.07 24 105.185 31.693 0 47.08v28.182h1399V47.08c-210.37 30.775-443.537 30.775-699.5 0C571.519 31.693 449.236 24 332.652 24z"/></g></svg>
