<svg xmlns="http://www.w3.org/2000/svg" preserveAspectRatio="none" width="100%" height="100%" viewBox="0 0 1156 174.116"><g fill="none" fill-rule="evenodd"><path d="M1156 101.224C1004.934 36.9 837.647-14.56 672.504 19.862c-111.182 20.855-214.227 76.307-328.578 82.07C227.421 112.127 110.973 88.427 0 54.586c151.765 71.318 322.697 128.292 491.75 93.202 97.85-20.305 188.455-69.629 289.451-76.045C906.551 57.126 1034.006 70.5 1156 101.224z" fill="#f9fafb"/><path d="M526.806 84.09c-140.278 75.72-311.517 58.068-455.117 1.245-17.88-5.966-62.516-27-65.558-27.037 130.707 78.575 285.961 138.436 440.431 107.527C552.85 148.152 640.677 76.072 747.62 60.623c136.468-25.847 278.533-6.297 408.381 40.322-136.393-75.064-298.284-127.33-453.852-86.87-61.432 14.817-119.697 40.445-175.342 70.016z" fill="#eef0f2"/></g></svg>
