<svg width="24px" height="24px" viewBox="0 0 24 24" version="1.1" xmlns="http://www.w3.org/2000/svg" xmlns:xlink="http://www.w3.org/1999/xlink"><title>iko/prof private 2svg</title><g id="iko/prof-private-2" stroke="none" stroke-width="1" fill="none" fill-rule="evenodd"><rect id="Rectangle" x="0" y="0" width="24" height="24"></rect><polygon id="Path" points="0 0 24 0 24 24 0 24"></polygon><path d="M19.5972081,17.4861858 L18.4850367,17.4861858 L18.0908494,17.1060766 C19.7802236,15.1351399 20.653067,12.4462192 20.1744109,9.58836114 C19.5127394,5.67464412 16.2466158,2.54930176 12.3047426,2.07064572 C6.34969832,1.33858354 1.35196616,6.35039382 2.06995022,12.3054381 C2.54860626,16.2473113 5.67394862,19.5134349 9.58766564,20.1751064 C12.4455237,20.6537625 15.1344444,19.7809191 17.1053811,18.0915449 L17.4854903,18.4857322 L17.4854903,19.5979036 L19.8956741,21.5921813 C20.472877,22.1693841 21.4020328,22.1693841 21.9792357,21.5921813 L21.9933138,21.5781031 C22.5705167,21.0009003 22.5705167,20.0717444 21.9933138,19.4945416 L19.5972081,17.4861858 Z M11.1503368,17.4861858 C7.64488525,17.4861858 4.81518338,14.6564839 4.81518338,11.1510323 C4.81518338,7.64558075 7.64488525,4.81587888 11.1503368,4.81587888 C14.6557884,4.81587888 17.4854903,7.64558075 17.4854903,11.1510323 C17.4854903,14.6564839 14.6557884,17.4861858 11.1503368,17.4861858 Z M14.6847364,7.61663273 C14.2888837,7.22077998 13.6668293,7.22077998 13.2709766,7.61663273 L11.1503368,9.73727248 L9.02969707,7.61663273 C8.63384431,7.22077998 8.01178999,7.22077998 7.61593723,7.61663273 C7.22008448,8.01248548 7.22008448,8.63453981 7.61593723,9.03039257 L9.73657698,11.1510323 L7.61593723,13.2716721 C7.22008448,13.6675248 7.22008448,14.2895792 7.61593723,14.6854319 C8.01178999,15.0812847 8.63384431,15.0812847 9.02969707,14.6854319 L11.1503368,12.5647922 L13.2709766,14.6854319 C13.6668293,15.0812847 14.2888837,15.0812847 14.6847364,14.6854319 C15.0805892,14.2895792 15.0805892,13.6675248 14.6847364,13.2716721 L12.5640967,11.1510323 L14.6847364,9.03039257 C15.0805892,8.63453981 15.0805892,8.01248548 14.6847364,7.61663273 Z" id="Shape" fill="#031963" fill-rule="nonzero"></path></g></svg>