<svg xmlns="http://www.w3.org/2000/svg" viewBox="0 0 287.32 55.418"><g fill="#fff" fill-rule="evenodd"><path d="M75.704 40.473c-1.94 0-3.831-.36-5.676-1.084-1.843-.723-3.504-1.82-4.98-3.294a15.244 15.244 0 01-3.257-4.888 14.86 14.86 0 01-1.127-5.748c0-2.046.375-3.975 1.127-5.79a14.79 14.79 0 013.257-4.847c1.476-1.474 3.142-2.578 5-3.314a15.283 15.283 0 015.676-1.105c1.926 0 3.812.369 5.655 1.105 1.844.736 3.505 1.84 4.98 3.314L81.48 19.69a7.852 7.852 0 00-2.704-1.78 8.374 8.374 0 00-3.073-.593 8.212 8.212 0 00-3.053.593 7.904 7.904 0 00-2.685 1.78 8.515 8.515 0 00-1.761 2.66 7.985 7.985 0 00-.615 3.109c0 1.09.205 2.121.615 3.088.41.969.996 1.848 1.76 2.64a7.892 7.892 0 002.686 1.779 8.212 8.212 0 003.053.593 8.374 8.374 0 003.073-.593 7.84 7.84 0 002.704-1.78l4.878 4.91c-1.475 1.472-3.13 2.57-4.96 3.293a15.371 15.371 0 01-5.695 1.084"/><path d="M101.398 33.559c1.12 0 2.173-.21 3.156-.634a8.201 8.201 0 002.58-1.739 8.205 8.205 0 001.743-2.577 7.88 7.88 0 00.634-3.15 7.878 7.878 0 00-.634-3.15 8.199 8.199 0 00-1.742-2.578 8.231 8.231 0 00-2.58-1.739 7.92 7.92 0 00-3.157-.634c-1.12 0-2.172.212-3.155.634a8.226 8.226 0 00-2.582 1.74 8.185 8.185 0 00-1.742 2.577 7.863 7.863 0 00-.634 3.15c0 1.119.21 2.168.634 3.15a8.19 8.19 0 001.742 2.577 8.195 8.195 0 002.582 1.739 7.888 7.888 0 003.155.634m-.02-23.114c2.073 0 4.023.395 5.85 1.186 1.829.791 3.426 1.86 4.79 3.21a15.066 15.066 0 013.232 4.767c.792 1.828 1.188 3.778 1.188 5.851s-.396 4.023-1.188 5.85a15.043 15.043 0 01-3.232 4.766 15.47 15.47 0 01-4.79 3.212c-1.827.792-3.777 1.186-5.85 1.186-2.074 0-4.025-.394-5.853-1.186a15.207 15.207 0 01-4.768-3.212c-1.35-1.35-2.421-2.938-3.212-4.766-.791-1.827-1.187-3.777-1.187-5.85 0-2.073.396-4.023 1.187-5.85a15.208 15.208 0 013.212-4.767c1.35-1.35 2.94-2.42 4.768-3.211 1.828-.791 3.78-1.186 5.853-1.186m24.074 15.546a7.197 7.197 0 002.11-.39 6.335 6.335 0 001.762-.92 4.376 4.376 0 001.19-1.33 3.222 3.222 0 000-3.211 4.49 4.49 0 00-1.19-1.309 6.357 6.357 0 00-1.761-.92 7.224 7.224 0 00-2.11-.389v8.469zm2.172 6.75c-.355.055-.71.096-1.066.123-.355.027-.724.055-1.106.081v7.569h-6.925V10.608h6.925c1.722.027 3.332.34 4.835.94 1.503.599 2.82 1.402 3.955 2.41a11.113 11.113 0 012.664 3.514 9.776 9.776 0 01.963 4.29c0 1.607-.342 3.098-1.025 4.474a10.798 10.798 0 01-2.868 3.574l6.638 10.704h-8.154zm22.334-3.927a5.442 5.442 0 002.15-.514 5.913 5.913 0 001.743-1.232 5.705 5.705 0 001.168-1.786c.287-.684.43-1.409.43-2.175a5.715 5.715 0 00-1.598-3.963 5.91 5.91 0 00-1.742-1.231 5.457 5.457 0 00-2.151-.514zm12.416-5.687c0 1.718-.321 3.335-.962 4.848a12.626 12.626 0 01-2.664 3.989 12.848 12.848 0 01-3.955 2.72c-1.503.669-3.114 1.017-4.835 1.043v4.787h-6.926v-30.03h6.926c1.72.028 3.332.383 4.835 1.065a13.159 13.159 0 013.955 2.741 12.607 12.607 0 012.664 3.989c.64 1.513.962 3.13.962 4.848zm17.089 10.432c1.12 0 2.172-.21 3.156-.634a8.201 8.201 0 002.58-1.739 8.205 8.205 0 001.743-2.577 7.88 7.88 0 00.634-3.15 7.878 7.878 0 00-.634-3.15 8.199 8.199 0 00-1.742-2.578 8.231 8.231 0 00-2.58-1.739 7.92 7.92 0 00-3.157-.634c-1.12 0-2.172.212-3.156.634a8.226 8.226 0 00-2.582 1.74 8.185 8.185 0 00-1.74 2.577 7.863 7.863 0 00-.636 3.15c0 1.119.21 2.168.635 3.15a8.19 8.19 0 001.74 2.577 8.195 8.195 0 002.583 1.739 7.888 7.888 0 003.156.634m-.02-23.114c2.073 0 4.023.395 5.85 1.186 1.829.791 3.426 1.86 4.79 3.21a15.066 15.066 0 013.232 4.767c.79 1.828 1.187 3.778 1.187 5.851s-.396 4.023-1.187 5.85a15.043 15.043 0 01-3.232 4.766 15.47 15.47 0 01-4.79 3.212c-1.827.792-3.777 1.186-5.85 1.186-2.074 0-4.025-.394-5.853-1.186-1.828-.79-3.418-1.862-4.768-3.212-1.35-1.35-2.421-2.938-3.212-4.766-.792-1.827-1.187-3.777-1.187-5.85 0-2.073.395-4.023 1.187-5.85.79-1.828 1.862-3.417 3.212-4.767 1.35-1.35 2.94-2.42 4.768-3.211 1.828-.791 3.779-1.186 5.853-1.186m24.074 15.546a7.197 7.197 0 002.11-.39 6.335 6.335 0 001.762-.92 4.376 4.376 0 001.189-1.33c.287-.504.43-1.042.43-1.616 0-.572-.143-1.104-.43-1.595a4.49 4.49 0 00-1.19-1.309 6.358 6.358 0 00-1.76-.92 7.224 7.224 0 00-2.111-.389zm2.172 6.75c-.355.055-.711.096-1.066.123-.355.027-.724.055-1.106.081v7.569h-6.925V10.608h6.925c1.72.027 3.332.34 4.835.94 1.503.599 2.82 1.402 3.955 2.41a11.113 11.113 0 012.664 3.514 9.776 9.776 0 01.963 4.29c0 1.607-.342 3.098-1.025 4.474a10.798 10.798 0 01-2.868 3.574l6.638 10.704h-8.155zm24.956-2.782h4.877l-2.377-7.282zm8.279 10.555l-1.19-3.64h-9.465l-1.23 3.64h-7.335l10.245-30.029h6.556l9.713 30.029zm26.595-30.152v6.914h-5.778v23.238h-6.926V17.276h-5.737v-6.914zM287.32 17.399h-12.376v4.542h10.04v6.914h-10.04v4.746h12.376v6.914h-19.303V10.526l19.302-.04zM46.05 1.664c8.858 4.096 11.2 26.288 6.78 37.108-10.24 29.543-62.891 15.875-51.126-18.7C6.104 7.249 33.334-4.434 46.05 1.665zM16.99 22.016l-.157.042H9.077l-.197-.042v.042c-.385 0-.627.207-.725.62l-.025.129v13.467c0 .371.206.612.62.72l.13.029h.083c.345 0 .58-.203.71-.607l.04-.142-.041-.24v-5.608h4.587l.792.04c.423-.18.636-.443.636-.79-.107-.475-.31-.736-.606-.783l-.103-.008-.563.042H9.672v-5.328h7.245c.472 0 .76-.24.865-.718-.076-.576-.34-.865-.792-.865zm4.155.094h-.157c-.35 0-.567.242-.648.726l-.02.138v8.46c0 1.264.276 2.325.825 3.185 1.148 1.522 2.488 2.322 4.02 2.398l.243.006h.27c.974 0 1.933-.316 2.878-.947 1.422-1.105 2.17-2.386 2.246-3.846l.006-.245v-9.166c0-.344-.192-.569-.575-.676l-.134-.032h-.115c-.354 0-.581.203-.682.61l-.027.13v8.74c0 .535-.08 1.048-.24 1.54-.777 1.575-1.935 2.363-3.47 2.363-.8 0-1.523-.25-2.17-.75-.974-.577-1.486-1.692-1.538-3.341l-.004-.28v-8.387c0-.32-.236-.528-.708-.625zm13.755.021h-.157c-.381 0-.604.288-.667.863V36.2c.097.521.348.781.75.781h.033c.5-.084.75-.32.75-.708V25.19l8.204 10.459c.618.916 1.076 1.374 1.376 1.374.549-.09.823-.35.823-.78V22.869c-.084-.493-.32-.739-.71-.739h-.113c-.382 0-.62.236-.71.708v11.166h-.041l-.032-.042c0-.076-.027-.114-.083-.114-5.316-6.854-8.168-10.5-8.557-10.937-.244-.521-.532-.781-.866-.781zm22.115 31.543c-3.521 4.493-9.9-.677-5.86-4.472 4.04-3.796 9.63.261 5.86 4.472"/></g></svg>