<svg xmlns="http://www.w3.org/2000/svg" viewBox="0 0 338.199 65.315"><path d="M89.11 47.702c-2.284 0-4.51-.426-6.681-1.278-2.17-.852-4.124-2.146-5.862-3.882-1.672-1.703-2.95-3.624-3.834-5.762-.885-2.137-1.326-4.395-1.326-6.774 0-2.411.44-4.685 1.326-6.823a17.433 17.433 0 013.834-5.713c1.738-1.737 3.698-3.038 5.886-3.906 2.186-.868 4.414-1.302 6.68-1.302 2.268 0 4.487.434 6.657 1.302 2.17.868 4.125 2.17 5.862 3.906l-5.742 5.737a9.241 9.241 0 00-3.183-2.097 9.846 9.846 0 00-3.617-.7c-1.222 0-2.42.234-3.594.7a9.302 9.302 0 00-3.16 2.097c-.9.933-1.591 1.977-2.073 3.135a9.421 9.421 0 00-.724 3.664c0 1.286.24 2.5.724 3.64a10.12 10.12 0 002.073 3.11 9.288 9.288 0 003.16 2.098c1.173.466 2.372.7 3.594.7a9.846 9.846 0 003.617-.7 9.227 9.227 0 003.183-2.097l5.742 5.785c-1.737 1.736-3.684 3.03-5.837 3.882a18.073 18.073 0 01-6.705 1.278" fill="#0067b7" fill-rule="evenodd"/><path d="M119.354 39.553a9.28 9.28 0 003.715-.748 9.653 9.653 0 003.038-2.05 9.67 9.67 0 002.05-3.036 9.298 9.298 0 00.747-3.712c0-1.318-.25-2.557-.747-3.713a9.663 9.663 0 00-2.05-3.038 9.688 9.688 0 00-3.038-2.05 9.313 9.313 0 00-3.715-.747c-1.32 0-2.556.25-3.714.747a9.682 9.682 0 00-3.04 2.05 9.647 9.647 0 00-2.05 3.038 9.278 9.278 0 00-.746 3.713 9.27 9.27 0 00.747 3.712 9.654 9.654 0 002.05 3.037 9.646 9.646 0 003.039 2.05 9.28 9.28 0 003.714.747m-.024-27.242c2.44 0 4.735.466 6.888 1.398 2.15.932 4.03 2.193 5.637 3.784 1.604 1.592 2.873 3.465 3.804 5.618.932 2.154 1.398 4.453 1.398 6.896 0 2.443-.466 4.74-1.398 6.894-.93 2.155-2.2 4.026-3.804 5.617-1.606 1.59-3.486 2.854-5.637 3.786-2.153.933-4.448 1.398-6.888 1.398-2.44 0-4.737-.465-6.89-1.398-2.15-.932-4.022-2.195-5.611-3.786-1.59-1.59-2.85-3.462-3.782-5.617-.93-2.153-1.396-4.451-1.396-6.894 0-2.443.465-4.742 1.396-6.896.932-2.153 2.193-4.026 3.782-5.618 1.59-1.59 3.46-2.852 5.612-3.784 2.152-.932 4.448-1.398 6.89-1.398m28.337 18.322a8.462 8.462 0 002.484-.458 7.454 7.454 0 002.073-1.085 5.156 5.156 0 001.4-1.567c.338-.595.506-1.23.506-1.905s-.168-1.301-.506-1.88a5.289 5.289 0 00-1.4-1.543 7.48 7.48 0 00-2.073-1.085 8.494 8.494 0 00-2.484-.458zm2.556 7.955c-.418.065-.837.114-1.254.145-.418.033-.853.065-1.302.097v8.92h-8.152V12.504h8.152c2.026.03 3.922.4 5.69 1.107 1.77.706 3.322 1.653 4.656 2.84a13.096 13.096 0 013.136 4.142 11.534 11.534 0 011.133 5.055c0 1.895-.402 3.652-1.206 5.274-.804 1.62-1.93 3.025-3.376 4.213l7.813 12.615h-9.598zm26.289-4.628a6.399 6.399 0 002.53-.605 6.96 6.96 0 002.052-1.452 6.725 6.725 0 001.375-2.105 6.56 6.56 0 00.506-2.564 6.57 6.57 0 00-.506-2.565 6.736 6.736 0 00-1.375-2.105 6.958 6.958 0 00-2.05-1.451 6.416 6.416 0 00-2.532-.606zm14.615-6.702c0 2.025-.378 3.93-1.133 5.714a14.882 14.882 0 01-3.136 4.7 15.123 15.123 0 01-4.655 3.207c-1.77.788-3.665 1.198-5.691 1.23v5.64h-8.152V12.359h8.152c2.026.033 3.922.45 5.69 1.254a15.489 15.489 0 014.656 3.23 14.86 14.86 0 013.136 4.702c.755 1.784 1.133 3.688 1.133 5.714zm20.115 12.295a9.28 9.28 0 003.715-.748 9.653 9.653 0 003.038-2.05 9.67 9.67 0 002.05-3.036 9.298 9.298 0 00.747-3.712c0-1.318-.25-2.557-.747-3.713a9.663 9.663 0 00-2.05-3.038 9.688 9.688 0 00-3.038-2.05 9.313 9.313 0 00-3.715-.747 9.31 9.31 0 00-3.714.747 9.682 9.682 0 00-3.04 2.05 9.647 9.647 0 00-2.05 3.038 9.278 9.278 0 00-.746 3.713 9.27 9.27 0 00.747 3.712 9.654 9.654 0 002.05 3.037 9.646 9.646 0 003.039 2.05 9.276 9.276 0 003.714.747m-.024-27.242c2.44 0 4.735.466 6.887 1.398 2.152.932 4.032 2.193 5.637 3.784 1.605 1.592 2.874 3.465 3.805 5.618.93 2.154 1.398 4.453 1.398 6.896 0 2.443-.467 4.74-1.398 6.894-.931 2.155-2.2 4.026-3.805 5.617-1.605 1.59-3.485 2.854-5.637 3.786-2.152.933-4.447 1.398-6.887 1.398-2.44 0-4.737-.465-6.89-1.398-2.15-.932-4.022-2.195-5.612-3.786-1.588-1.59-2.85-3.462-3.78-5.617-.932-2.153-1.397-4.451-1.397-6.894 0-2.443.465-4.742 1.396-6.896.93-2.153 2.193-4.026 3.78-5.618 1.59-1.59 3.462-2.852 5.614-3.784 2.152-.932 4.448-1.398 6.89-1.398m28.337 18.322a8.462 8.462 0 002.484-.458 7.454 7.454 0 002.073-1.085 5.156 5.156 0 001.4-1.567c.338-.595.506-1.23.506-1.905s-.168-1.301-.506-1.88a5.289 5.289 0 00-1.4-1.543 7.48 7.48 0 00-2.073-1.085 8.494 8.494 0 00-2.484-.458zm2.556 7.955c-.418.065-.837.114-1.255.145-.418.033-.852.065-1.301.097v8.92h-8.152V12.504h8.152c2.026.03 3.922.4 5.69 1.107 1.77.706 3.322 1.653 4.656 2.84a13.096 13.096 0 013.136 4.142 11.534 11.534 0 011.133 5.055c0 1.895-.402 3.652-1.206 5.274-.804 1.62-1.93 3.025-3.376 4.213l7.813 12.615h-9.598zm29.376-3.278h5.74l-2.798-8.583zm9.744 12.44l-1.4-4.291H268.69l-1.447 4.29h-8.634l12.059-35.39h7.717l11.434 35.39h-8.587zm31.305-35.536v8.148h-6.8V47.75h-8.154V20.362h-6.752v-8.148zM338.199 20.507h-14.567v5.353h11.818v8.148h-11.818V39.6h14.567v8.149h-22.72V12.406l22.72-.048z" fill="#0067b7" fill-rule="evenodd"/><path d="M62.186 45.697c-12.054 34.819-74.03 18.71-60.18-22.04 5.18-15.113 37.232-28.883 52.2-21.694 10.425 4.827 13.182 30.98 7.98 43.734" fill="#0069b3" fill-rule="evenodd"/><path d="M10.452 25.949l.233.05h9.13l.183-.05c.533 0 .843.34.933 1.019-.123.563-.462.846-1.018.846h-8.53v6.28h5.584l.663-.05c.417 0 .695.31.835.932 0 .41-.25.72-.75.932l-.931-.048h-5.4v6.61l.05.282c-.14.589-.433.883-.883.883h-.1c-.59-.106-.882-.4-.882-.883V26.88c.09-.588.385-.883.883-.883z" fill="#fefefe" fill-rule="evenodd"/><path d="M10.452 25.949l.233.05h9.13l.183-.05c.533 0 .843.34.933 1.019-.123.563-.462.846-1.018.846h-8.53v6.28h5.584l.663-.05c.417 0 .695.31.835.932 0 .41-.25.72-.75.932l-.931-.048h-5.4v6.61l.05.282c-.14.589-.433.883-.883.883h-.1c-.59-.106-.882-.4-.882-.883V26.88c.09-.588.385-.883.883-.883z" fill="none" stroke="#fefefe" stroke-width=".171"/><path d="M24.705 26.06h.184c.556.114.834.36.834.736v9.885c0 2.126.605 3.549 1.816 4.268.76.59 1.61.884 2.552.884 1.808 0 3.17-.93 4.086-2.785a5.85 5.85 0 00.282-1.816V26.93c.099-.58.377-.87.835-.87h.135c.556.106.834.384.834.834v10.804c0 1.84-.884 3.447-2.65 4.82-1.113.745-2.241 1.117-3.387 1.117h-.32c-1.921 0-3.594-.944-5.017-2.833-.646-1.013-.97-2.264-.97-3.753v-9.972c.073-.678.336-1.017.786-1.017" fill="#fefefe" fill-rule="evenodd"/><path d="M24.705 26.06h.184c.556.114.834.36.834.736v9.885c0 2.126.605 3.549 1.816 4.268.76.59 1.61.884 2.552.884 1.808 0 3.17-.93 4.086-2.785a5.85 5.85 0 00.282-1.816V26.93c.099-.58.377-.87.835-.87h.135c.556.106.834.384.834.834v10.804c0 1.84-.884 3.447-2.65 4.82-1.113.745-2.241 1.117-3.387 1.117h-.32c-1.921 0-3.594-.944-5.017-2.833-.646-1.013-.97-2.264-.97-3.753v-9.972c.073-.678.336-1.017.786-1.017z" fill="none" stroke="#fefefe" stroke-width=".171"/><path d="M40.896 26.084h.184c.393 0 .732.307 1.02.92.457.515 3.815 4.812 10.072 12.89.066 0 .098.045.098.135l.038.05h.049v-13.16c.105-.557.384-.835.834-.835h.134c.459 0 .737.29.835.87v15.76c0 .509-.323.815-.97.92-.351 0-.891-.54-1.62-1.62L41.916 29.69v13.062c0 .458-.295.735-.883.834h-.038c-.475 0-.77-.306-.884-.92V27.102c.074-.68.336-1.018.786-1.018" fill="#fefefe" fill-rule="evenodd"/><path d="M40.896 26.084h.184c.393 0 .732.307 1.02.92.457.515 3.815 4.812 10.072 12.89.066 0 .098.045.098.135l.038.05h.049v-13.16c.105-.557.384-.835.834-.835h.134c.459 0 .737.29.835.87v15.76c0 .509-.323.815-.97.92-.351 0-.891-.54-1.62-1.62L41.916 29.69v13.062c0 .458-.295.735-.883.834h-.038c-.475 0-.77-.306-.884-.92V27.102c.074-.68.336-1.018.786-1.018z" fill="none" stroke="#fefefe" stroke-width=".171"/><path d="M67.112 63.26c-4.145 5.295-11.653-.798-6.9-5.27 4.757-4.474 11.338.307 6.9 5.27" fill="#009ea0" fill-rule="evenodd"/></svg>