<svg version="1" xmlns="http://www.w3.org/2000/svg" width="178.667" height="178.667" viewBox="0 0 134.000000 134.000000"><path d="M9 54.4v53.3l13.7 12.1 13.8 12.1h34c36.2 0 38.3-.2 44.4-5 1.6-1.3 4.2-4.6 5.6-7.3l2.5-5V73.4c0-23.8-.4-42.3-1-43.8-1.1-3.1-5.2-5.9-8.5-5.9-1.8 0-2.5-.6-3-2.8-.8-3.5-5.8-7.9-9.1-7.9-1.9 0-2.4-.5-2.4-2.6 0-1.6-1.3-3.9-3.4-6L92.2 1H9v53.4zM91.2 8.8c.9.9 1.2 11.6 1.3 44.9 0 24.1-.3 44.6-.7 45.6-.8 1.6-3.6 1.7-38.3 1.7-29.3 0-37.5-.3-37.6-1.3-.6-5.2-.3-91.3.2-91.7.4-.3 17.2-.5 37.3-.5 27.6 0 36.8.3 37.8 1.3zm12.9 14.5c0 1.2.1 20 .1 41.8.1 36.6 0 39.8-1.7 42.6-1 1.7-2.9 3.6-4.2 4.2-1.6.7-14.3 1.1-37.3 1.1H26.1l-2.8-2.5-2.8-2.4 3.5-.1c1.9-.1 18.2-.2 36.2-.3l32.8-.2 2.7-2.8 2.8-2.7.3-40.3c.1-22.1.4-40.8.7-41.5.7-2 4.5.5 4.6 3.1zM115 31c1.2.8 1.5 6.7 1.5 40.6 0 41.1-.2 44.2-4.2 48.6-4.4 4.9-5.6 5.1-40.6 5.1H38.9l-2.7-2.6c-1.5-1.5-2.2-2.7-1.7-2.8.6 0 15.2-.1 32.5-.2 31-.2 31.6-.2 35.2-2.5 2-1.3 4.7-4 6-6 2.3-3.7 2.3-4 2.6-42.5.3-39.9.3-40.2 4.2-37.7z"/></svg>