<svg data-name="Layer 1" xmlns="http://www.w3.org/2000/svg" width="1155.6" height="697.61" viewBox="0 0 1155.6 697.61"><path d="M1143.41 650.64a189.09 189.09 0 01-16.41 31.52 136.38 136.38 0 01-9.94 13.66l-.11.13H5.6l.2-.14c1-.78 6.87-5.53 16-13.66 6.55-5.84 14.77-13.42 24-22.54 75.49-74.25 220.5-250 99.73-411-112.27-149.67 8.61-176.84 88.35-180a228.25 228.25 0 0189.87 14.69c36.83 14 104.16 35.47 191.88 45.3q4.32.49 8.72.94a840.2 840.2 0 00139.78 2.53c1.37-.07 2.75-.17 4.14-.27a831.75 831.75 0 00136.72-21.16c2.91-.71 5.78-1.38 8.64-2 149.63-34.62 287.57 83.37 253.09 216.72-12.76 49.31-9.52 101.89 33 144.41 69.55 69.44 61.08 137.8 43.69 180.87z" fill="#028074" opacity=".1"/><ellipse cx="919.83" cy="372.94" rx="14.05" ry="10.73" transform="rotate(-60.79 822.525 341.258)" fill="#3f3d56"/><ellipse cx="928.21" cy="357.95" rx="14.05" ry="10.73" transform="rotate(-60.79 830.903 326.272)" fill="#3f3d56"/><ellipse cx="936.59" cy="342.97" rx="14.05" ry="10.73" transform="rotate(-60.79 839.28 311.286)" fill="#3f3d56"/><ellipse cx="944.97" cy="327.98" rx="14.05" ry="10.73" transform="rotate(-60.79 847.65 296.295)" fill="#3f3d56"/><ellipse cx="953.34" cy="312.99" rx="14.05" ry="10.73" transform="rotate(-60.79 856.029 281.308)" fill="#3f3d56"/><ellipse cx="961.72" cy="298" rx="14.05" ry="10.73" transform="rotate(-60.79 864.412 266.314)" fill="#3f3d56"/><ellipse cx="970.1" cy="283.02" rx="14.05" ry="10.73" transform="rotate(-60.79 872.79 251.328)" fill="#3f3d56"/><path d="M1040.3 98.87a52.4 52.4 0 006.36-3.18l-22.35-17.81 26.49 15.08a51.51 51.51 0 0020.73-35.07l-46.07-1.44 46.47-5.79a51.41 51.41 0 10-102.13 8.78 51.66 51.66 0 00-9.69 5.32l22.69 34.46-27.67-30.48a51.42 51.42 0 00-16.33 46.18 51.4 51.4 0 1070.54 39.43 51.39 51.39 0 0031-55.48z" fill="#028074"/><path d="M944.66 81.81a51.27 51.27 0 00-5.86 33.11 51.4 51.4 0 1070.54 39.43c10.23-4.27-61.86-77.54-64.68-72.54z" opacity=".1"/><path d="M1011.39 631.77h12.11a25 25 0 0125 25v37.11h-62.11v-37.11a25 25 0 0125-25z" fill="#3f3d56"/><path d="M1011.39 631.77h12.11a25 25 0 0125 25v37.11h-62.11v-37.11a25 25 0 0125-25z" opacity=".1"/><circle cx="1014.97" cy="640.47" r="4.97" fill="#3f3d56"/><circle cx="1014.97" cy="634.26" r="4.97" fill="#3f3d56"/><circle cx="1014.97" cy="628.04" r="4.97" fill="#3f3d56"/><circle cx="1014.97" cy="621.83" r="4.97" fill="#3f3d56"/><circle cx="1014.97" cy="615.62" r="4.97" fill="#3f3d56"/><circle cx="1014.97" cy="609.41" r="4.97" fill="#3f3d56"/><circle cx="1014.97" cy="603.2" r="4.97" fill="#3f3d56"/><circle cx="1022.42" cy="605.68" r="4.97" fill="#3f3d56"/><circle cx="1027.39" cy="603.2" r="4.97" fill="#3f3d56"/><circle cx="1032.36" cy="600.71" r="4.97" fill="#3f3d56"/><circle cx="1014.97" cy="596.99" r="4.97" fill="#3f3d56"/><circle cx="1014.97" cy="590.78" r="4.97" fill="#3f3d56"/><circle cx="1014.97" cy="584.56" r="4.97" fill="#3f3d56"/><circle cx="1014.97" cy="578.35" r="4.97" fill="#3f3d56"/><path d="M1035.57 562.33q-1.85.27-3.72.39a28.56 28.56 0 003.2-3.28 21 21 0 00-3-5.83 10.34 10.34 0 01-4 1.27c-1.23.18-2.47.31-3.71.39a66.41 66.41 0 004.75-5 21.1 21.1 0 106.93 15.61 20.68 20.68 0 00-.32-3.63zm16.6 24.69a9.78 9.78 0 01-4.18 1.4c-1.23.18-2.47.31-3.71.39a36.4 36.4 0 003.68-3.82 12.83 12.83 0 00-3.18-.42 12.44 12.44 0 107.39 2.45z" fill="#028074"/><circle cx="1007.51" cy="605.68" r="4.97" fill="#3f3d56"/><circle cx="1002.54" cy="603.2" r="4.97" fill="#3f3d56"/><circle cx="997.58" cy="600.71" r="4.97" fill="#3f3d56"/><path d="M977.8 587.02a9.78 9.78 0 004.18 1.4c1.23.18 2.47.31 3.71.39a36.4 36.4 0 01-3.68-3.82 12.83 12.83 0 013.18-.42 12.44 12.44 0 11-7.39 2.45z" fill="#028074"/><path d="M1011.39 635.5h12.11a25 25 0 0125 25v32.87a4.24 4.24 0 01-4.24 4.24h-53.63a4.24 4.24 0 01-4.24-4.24V660.5a25 25 0 0125-25z" fill="#3f3d56"/><path d="M1035.95 563.69a16.19 16.19 0 01-1.61 1.52c.57 0 1.14-.09 1.7-.15-.02-.46-.04-.92-.09-1.37zm-9.06-5.94c1.24-.08 2.48-.21 3.71-.39a11.64 11.64 0 003.23-.88 22.6 22.6 0 00-1.74-2.87 7.52 7.52 0 01-2 .85 29.59 29.59 0 01-3.2 3.29zm-30.56 10.67a21.08 21.08 0 0132.5-17.76l.32-.34a21.1 21.1 0 10-27.82 31.73 21 21 0 01-5-13.63zm47.95 22.88c1.24-.09 2.48-.22 3.71-.4a9.77 9.77 0 004.18-1.39 12.39 12.39 0 015 8.8 11.55 11.55 0 00.07-1.32 12.39 12.39 0 00-5-10 9.78 9.78 0 01-4.18 1.4l-1 .12a24.61 24.61 0 01-2.78 2.79zm.52-4.25c.42 0 .83 0 1.24.09.65-.69 1.29-1.43 1.94-2.15a12.83 12.83 0 00-3.18-.42 12.42 12.42 0 00-12.42 12.42c0 .42 0 .84.06 1.24a12.43 12.43 0 0112.36-11.18zm-59.15 4.25c-1.24-.09-2.48-.22-3.71-.4a9.77 9.77 0 01-4.18-1.39 12.39 12.39 0 00-5 8.8 11.55 11.55 0 01-.07-1.32 12.39 12.39 0 015-10 9.78 9.78 0 004.18 1.4l1 .12a25.5 25.5 0 002.78 2.79zm-.5-4.25c-.42 0-.83 0-1.24.09-.65-.69-1.29-1.43-1.94-2.15a12.83 12.83 0 013.18-.42 12.42 12.42 0 0112.42 12.42c0 .42 0 .84-.06 1.24a12.43 12.43 0 00-12.36-11.18z" opacity=".1"/><path d="M57 539h95.54a25 25 0 0125 25v120.49H32V564a25 25 0 0125-25z" fill="#3f3d56"/><path d="M57 539h95.54a25 25 0 0125 25v120.49H32V564a25 25 0 0125-25z" opacity=".1"/><circle cx="98.97" cy="559.33" r="11.64" fill="#3f3d56"/><circle cx="98.97" cy="544.78" r="11.64" fill="#3f3d56"/><circle cx="98.97" cy="530.22" r="11.64" fill="#3f3d56"/><circle cx="98.97" cy="515.67" r="11.64" fill="#3f3d56"/><circle cx="98.97" cy="501.11" r="11.64" fill="#3f3d56"/><circle cx="98.97" cy="486.56" r="11.64" fill="#3f3d56"/><circle cx="98.97" cy="472.01" r="11.64" fill="#3f3d56"/><circle cx="116.43" cy="477.83" r="11.64" fill="#3f3d56"/><circle cx="128.07" cy="472.01" r="11.64" fill="#3f3d56"/><circle cx="139.72" cy="466.18" r="11.64" fill="#3f3d56"/><circle cx="98.97" cy="457.45" r="11.64" fill="#3f3d56"/><circle cx="98.97" cy="442.9" r="11.64" fill="#3f3d56"/><circle cx="98.97" cy="428.34" r="11.64" fill="#3f3d56"/><circle cx="98.97" cy="413.79" r="11.64" fill="#3f3d56"/><path d="M147.24 376.24q-4.33.63-8.7.92a67.77 67.77 0 007.49-7.69 49.35 49.35 0 00-6.94-13.66 23.74 23.74 0 01-9.32 3c-2.88.42-5.79.73-8.7.93 3.83-3.1 7.38-7.79 11.13-11.6a49.59 49.59 0 1015.49 28.06zm38.9 57.86c-2.74 1.93-6.38 2.76-9.79 3.26-2.89.43-5.79.73-8.7.93 3-2.41 5.76-5.77 8.62-8.94a29.13 29.13 0 109.87 4.75z" fill="#028074"/><circle cx="81.5" cy="477.83" r="11.64" fill="#3f3d56"/><circle cx="69.86" cy="472.01" r="11.64" fill="#3f3d56"/><circle cx="58.22" cy="466.18" r="11.64" fill="#3f3d56"/><path d="M11.8 434.1c2.74 1.93 6.38 2.76 9.8 3.26 2.88.43 5.78.73 8.69.93-3-2.41-5.76-5.77-8.62-8.94a29.13 29.13 0 11-9.87 4.75z" fill="#028074"/><path d="M57 547.69h95.54a25 25 0 0125 25V689a4.24 4.24 0 01-4.24 4.24H36.26A4.24 4.24 0 0132 689V572.69a25 25 0 0125-25z" fill="#3f3d56"/><path d="M148.12 379.42a37.62 37.62 0 01-3.76 3.56c1.33-.09 2.67-.21 4-.34a48.76 48.76 0 00-.24-3.22zm-21.22-13.9c2.91-.2 5.81-.5 8.69-.93a27.71 27.71 0 007.58-2 50.55 50.55 0 00-4.08-6.74 17.18 17.18 0 01-4.66 2 69.21 69.21 0 01-7.53 7.67zm-71.6 24.99a49.39 49.39 0 0176.15-41.61c.25-.26.5-.55.75-.8a49.44 49.44 0 10-65.17 74.35 49.21 49.21 0 01-11.73-31.94zm112.35 53.6q4.36-.28 8.7-.93c3.41-.49 7-1.32 9.79-3.26a29.06 29.06 0 0111.66 20.61c.1-1 .16-2 .16-3.07a29 29 0 00-11.79-23.36c-2.74 1.93-6.38 2.76-9.79 3.26-.77.11-1.53.2-2.29.29a57.62 57.62 0 01-6.44 6.46zm1.15-9.94a28.06 28.06 0 012.92.2c1.52-1.62 3-3.34 4.53-5a29 29 0 00-36.55 28.11c0 1 .05 2 .14 2.91a29.11 29.11 0 0128.96-26.22zm-138.52 9.94q-4.36-.28-8.69-.93c-3.42-.49-7.06-1.32-9.8-3.26A29.06 29.06 0 00.16 460.53c-.1-1-.16-2-.16-3.07a29 29 0 0111.8-23.36c2.74 1.93 6.38 2.76 9.8 3.26.76.11 1.52.2 2.28.29a58.48 58.48 0 006.4 6.46zm-1.17-9.94a28.06 28.06 0 00-2.92.2c-1.52-1.62-3-3.34-4.53-5a29 29 0 0136.55 28.11c0 1 0 2-.14 2.91a29.11 29.11 0 00-28.96-26.22z" opacity=".1"/><path fill="#d0d2d5" d="M679.98 696.14l-195-2.5.57-5 9.43-82.5h171.25l12.6 82.5.96 6.25.19 1.25z"/><path opacity=".1" d="M679.79 694.89h-97.31l-97.5-1.25.57-5h193.28l.96 6.25z"/><path fill="#d0d2d5" d="M452.48 689.89h258.75v6.25H452.48z"/><path d="M958.1 110.62a16.28 16.28 0 00-16.19-16.36H219.3a16.28 16.28 0 00-16.2 16.36v438h755z" fill="#444053"/><path d="M203.1 544.26v51.31a16.19 16.19 0 0016.2 16.24h722.61a16.19 16.19 0 0016.19-16.19v-51.36z" fill="#d0d2d5"/><path fill="#028074" opacity=".1" d="M234.35 121.76H930.6v393.75H234.35z"/><path d="M584.35 592.3a16.89 16.89 0 0013.28-6.44 18.18 18.18 0 001.31-1.93l-9.26-1.52 10 .07a16.83 16.83 0 00.32-13.37l-13.43 7 12.39-9.1a16.87 16.87 0 10-27.87 18.8 16.87 16.87 0 0013.26 6.49z" fill="#028074"/><path opacity=".1" d="M601.23 611.76l77.79 78.13-11.93-78.13h-65.86z"/><path fill="#fff" d="M253.73 175.38h537.5v285.41h-537.5z"/><path fill="#028074" opacity=".1" d="M283.71 249.78h149.92v7.77H283.71zm13.33-41.09h14.44v41.09h-14.44zm21.1 0h14.44v41.09h-14.44zm21.1 0h14.44v41.09h-14.44zm21.1 0h14.44v41.09h-14.44zm21.1 0h14.44v41.09h-14.44zm21.1 0h14.44v41.09h-14.44z"/><path fill="#028074" opacity=".1" d="M297.04 216.47h14.44v4.44h-14.44zm21.1 0h14.44v4.44h-14.44zm21.1 0h14.44v4.44h-14.44zm21.1 0h14.44v4.44h-14.44zm21.1 0h14.44v4.44h-14.44zm21.1 0h14.44v4.44h-14.44zm-105.5 19.99h14.44v4.44h-14.44zm21.1 0h14.44v4.44h-14.44zm21.1 0h14.44v4.44h-14.44zm21.1 0h14.44v4.44h-14.44zm21.1 0h14.44v4.44h-14.44zm21.1 0h14.44v4.44h-14.44zm209.89 33.31h149.92v7.77H612.43zm13.33-41.09h14.44v41.09h-14.44zm21.1 0h14.44v41.09h-14.44zm21.1 0h14.44v41.09h-14.44zm21.1 0h14.44v41.09h-14.44zm21.1 0h14.44v41.09h-14.44zm21.1 0h14.44v41.09h-14.44z"/><path fill="#028074" opacity=".1" d="M625.76 236.46h14.44v4.44h-14.44zm21.1 0h14.44v4.44h-14.44zm21.1 0h14.44v4.44h-14.44zm21.1 0h14.44v4.44h-14.44zm21.1 0h14.44v4.44h-14.44zm21.1 0h14.44v4.44h-14.44zm-105.5 19.99h14.44v4.44h-14.44zm21.1 0h14.44v4.44h-14.44zm21.1 0h14.44v4.44h-14.44zm21.1 0h14.44v4.44h-14.44zm21.1 0h14.44v4.44h-14.44zm21.1 0h14.44v4.44h-14.44zm-118.83 69.96h149.92v7.77H612.43zm13.33-41.09h14.44v41.09h-14.44zm21.1 0h14.44v41.09h-14.44zm21.1 0h14.44v41.09h-14.44zm21.1 0h14.44v41.09h-14.44zm21.1 0h14.44v41.09h-14.44zm21.1 0h14.44v41.09h-14.44z"/><path fill="#028074" opacity=".1" d="M625.76 293.09h14.44v4.44h-14.44zm21.1 0h14.44v4.44h-14.44zm21.1 0h14.44v4.44h-14.44zm21.1 0h14.44v4.44h-14.44zm21.1 0h14.44v4.44h-14.44zm21.1 0h14.44v4.44h-14.44zm-105.5 19.99h14.44v4.44h-14.44zm21.1 0h14.44v4.44h-14.44zm21.1 0h14.44v4.44h-14.44zm21.1 0h14.44v4.44h-14.44zm21.1 0h14.44v4.44h-14.44zm21.1 0h14.44v4.44h-14.44zm-355.6 24.58a39.57 39.57 0 01-3.06-4.5l21.59-3.54-23.39.19a39.43 39.43 0 01-.75-31.18l31.32 16.25-28.88-21.23a39.35 39.35 0 1165 44 39.33 39.33 0 014.51 7.16l-28 14.55 29.87-10a39.33 39.33 0 01-6.34 36.94 39.35 39.35 0 11-61.85 0 39.35 39.35 0 010-48.65z"/><path d="M445.93 361.99a39.18 39.18 0 01-8.42 24.32 39.35 39.35 0 11-61.85 0c-5.27-6.69 70.27-28.74 70.27-24.32z" fill="#028074" opacity=".1"/><path d="M412.9 460.46c.07.11.12.22.19.33h-13.36c.07-.11.12-.22.19-.33a13 13 0 01-1.72-6.58 13.55 13.55 0 01.81-4.63c.74.12 1.66.25 2.72.36a46.86 46.86 0 009.32 0c.88-.09 1.81-.22 2.75-.36a.64.64 0 010 .07 13.34 13.34 0 01.79 4.56 13 13 0 01-1.69 6.58z" fill="#3f3d56" opacity=".2"/><path d="M364.89 460.81h-74.3c-.17-.43-.32-.88-.45-1.32a39.11 39.11 0 01.87-25.72 39.34 39.34 0 01-14.36-46.49 40.69 40.69 0 01-4.26-3.4l19.58-9.76-22.25 7.06a39.39 39.39 0 01-9.92-29.58l34.72 6.27-33.86-11.76A39.35 39.35 0 11335.74 369a40.09 40.09 0 016.41 5.53l-22.48 22.18 25.59-18.4a39.36 39.36 0 014.84 37.18 39.36 39.36 0 0114.79 45.32z" fill="#028074" opacity=".1"/><path d="M364.89 460.81h-74.3c-.17-.43-.32-.88-.45-1.32a39.11 39.11 0 01.87-25.72c-7-4.85 58.66-48.21 60-44a39.27 39.27 0 01-.87 25.73 39.36 39.36 0 0114.75 45.31zm336.45-53.31a39.16 39.16 0 01-19.7 16.56 40.6 40.6 0 01.17 8.47l-31.52-1.89 30.78 6.73a39.44 39.44 0 01-15.19 23.44h-42.9v1.11h-43.67c.09-.38.18-.75.28-1.11a39.49 39.49 0 0124-26.71 39.38 39.38 0 0125-41.76 39.39 39.39 0 01-.33-5.43l20.35 8-20.12-11.82a39.44 39.44 0 0115.31-27.14l18.54 30-13.89-33a39.34 39.34 0 0152.88 54.58z" fill="#028074" opacity=".1"/><path d="M676.37 449.26a38.79 38.79 0 01-10.49 11.55h-42.9v1.11h-43.67c.09-.38.18-.75.28-1.11a39.49 39.49 0 0124-26.71c-.37-2.87 8.11-2.48 19.4-.58 22.07 3.7 54.88 13.23 53.38 15.74z" fill="#028074" opacity=".1"/><path d="M490.45 344.27s5.35 29.17-6.65 38.68 10.14 66.58 46.92 59.93 51.68-54.54 51.68-54.54-36.78-7.6-23.15-46.28z" fill="#efb7b9"/><path d="M490.45 344.27s5.35 29.17-6.65 38.68 10.14 66.58 46.92 59.93 51.68-54.54 51.68-54.54-36.78-7.6-23.15-46.28z" opacity=".1"/><circle cx="522.95" cy="304.8" r="60.87" fill="#efb7b9"/><path d="M622.98 420.52v41.38h-201v-39.49a25.51 25.51 0 0115.56-23.48l5.77-2.45c14.58-6.21 32.29-13.92 38.08-17.13a9.53 9.53 0 001.78-1.15c3.17-3.17 2.54.95 2.54.95s-.09.78-.15 2.14c-.34 9.31 1 45.93 43.9 42.88 41.86-3 43.7-31.24 43.32-39.55a20.67 20.67 0 00-.2-2.3c0-.22 3.6 1 8.48 2.76 8.77 3.23 21.66 8.43 25.13 10.88 1.08.75 2.39 1.55 3.81 2.34a25.36 25.36 0 0113 22.22z" fill="#028074"/><path d="M581.05 385.08c-3.54 16.42-14.66 47.18-54.77 48-42.71.84-45.17-41.64-44.91-53.69a9.25 9.25 0 001.79-1.16c3.17-3.17 2.54.95 2.54.95s-5.39 48.51 43.75 45 43.12-41.85 43.12-41.85c0-.23 3.6.95 8.48 2.75z" opacity=".1"/><path d="M450.9 307.81c4-1.3 8.77.9 11 4s2.54 6.85 2.81 10.44c2.65.56 4.14-2.44 4.38-4.69 1-9.21 1.05-18.59 4.14-27.47s9.84-17.48 20.22-20.9a23.36 23.36 0 0111-1.05c2.19.37 4.26 1.13 6.45 1.49 7.57 1.25 15.82-2.34 22.93.16 4.45 1.57 7.32 5.2 9.36 8.84a19.29 19.29 0 003.64 5.29c3 2.7 7.76 3.41 12.08 4.26s9.06 2.31 10.91 5.65c1.67 3 .44 6.5-.12 9.78a23.88 23.88 0 002.47 15.1c.8 1.52 2.42 3.24 4.33 2.75a3.82 3.82 0 002.07-1.68c5-7 4.84-16.08 11.07-22.33 2.09-2.09 4.78-3.73 6.81-5.86a13.18 13.18 0 003.53-12c-1.12-4.81-5-8.82-8.07-13a51 51 0 01-8.65-17.95 3.2 3.2 0 010-2.34 6.27 6.27 0 012.21-1.81 8.36 8.36 0 002.87-10.68c-1.74-3.63-5.65-6.32-9.94-7.94s-9-2.31-13.66-3c-3.06.45-6.65-1.3-7.6-3.75-.42-1.09-.42-2.27-.85-3.36-.83-2.09-3.22-3.57-5.79-4.08a17 17 0 00-7.82.55c-2.88.81-6.22 2-8.73.62-1.32-.75-2.06-2.11-3.48-2.72-2.88-1.23-5.92 1.25-8 3.3a19.7 19.7 0 01-7.23 4.85c-2.89 1-6.45 1-8.94-.59-2-1.27-3-3.31-4.59-4.93-2.61-2.67-6.74-4.12-10.86-4.45a38.38 38.38 0 00-12.26 1.34 74.24 74.24 0 00-21.55 9c-3.33 2.09-6.52 4.53-8.26 7.68a17.43 17.43 0 00-1.86 7.92c-.31 8.61 2.55 17.69 10 23.72-4.54 1.9-6.08 6.55-7.14 10.68-1.7 6.58-3.41 13.28-2.77 20 .32 3.47 1.27 6.94.76 10.39-.24 1.67-.82 3.31-.68 5a4.78 4.78 0 003.81 3.77z" fill="#454b69"/><path d="M599.1 276.99a14.34 14.34 0 01-2.63 3.87c-2 2.13-4.72 3.77-6.81 5.87-6.23 6.24-6.1 15.35-11.07 22.33a3.8 3.8 0 01-2.07 1.67c-1.91.49-3.53-1.23-4.33-2.75a24.3 24.3 0 01-2.17-5.85q-.16.76-.3 1.53a23.88 23.88 0 002.47 15.1c.8 1.52 2.42 3.24 4.33 2.75a3.82 3.82 0 002.07-1.68c5-7 4.84-16.08 11.07-22.33 2.09-2.09 4.78-3.73 6.81-5.86a13.18 13.18 0 003.53-12 14.42 14.42 0 00-.9-2.65zm-13.59-43.18a6.14 6.14 0 00-2.21 1.8 3.2 3.2 0 000 2.34 48.89 48.89 0 002.21 6.65 8.36 8.36 0 002.83-10.79 10.94 10.94 0 00-1-1.7 8.34 8.34 0 01-1.83 1.7zm-128.6 13.48a27.15 27.15 0 01-9.55-16.9 24 24 0 00-.44 4 30.43 30.43 0 004.8 18 10.23 10.23 0 015.19-5.1zm112.81 45.59c.56-3.28 1.79-6.77.12-9.78-1.85-3.34-6.58-4.81-10.91-5.65s-9.06-1.56-12.08-4.26a19.29 19.29 0 01-3.64-5.29c-2-3.64-4.91-7.27-9.36-8.84-7.11-2.5-15.36 1.09-22.93-.16-2.19-.36-4.26-1.12-6.45-1.49a23.36 23.36 0 00-11 1c-10.38 3.42-17.13 12-20.22 20.9s-3.16 18.26-4.14 27.47c-.24 2.25-1.73 5.25-4.38 4.69-.27-3.59-.6-7.34-2.81-10.44s-6.93-5.31-11-4a5.3 5.3 0 01-3.08-2 16.81 16.81 0 01-.06 4c-.24 1.67-.82 3.31-.68 5a4.78 4.78 0 003.8 3.78c4-1.3 8.77.9 11 4s2.54 6.85 2.81 10.44c2.65.56 4.14-2.44 4.38-4.69 1-9.21 1.05-18.59 4.14-27.47s9.84-17.48 20.22-20.9a23.36 23.36 0 0111-1.05c2.19.37 4.26 1.13 6.45 1.49 7.57 1.25 15.82-2.34 22.93.16 4.45 1.57 7.32 5.2 9.36 8.84a19.29 19.29 0 003.64 5.29c3 2.7 7.76 3.41 12.08 4.26s8.71 2.21 10.69 5.31c.05-.17.08-.39.12-.61zm-121.92-4.54a28.13 28.13 0 00-.48-8.12 36.2 36.2 0 00-.28 8.51c.06.73.16 1.45.26 2.18.12-.86.34-1.71.5-2.57z" opacity=".1"/><path fill="#fff" d="M818.73 398.69h90v62.45h-90z"/><path d="M900.71 445.81a11.11 11.11 0 01-5.61 4.71 11.43 11.43 0 01.05 2.41l-9-.54 8.76 1.92a11.27 11.27 0 01-4.32 6.66h-12.18v.32h-12.42c0-.11 0-.21.08-.32a11 11 0 011.22-2.89 11.14 11.14 0 015.6-4.71 11.19 11.19 0 017.11-11.88 10 10 0 01-.09-1.54l5.79 2.28-5.73-3.36a11.18 11.18 0 014.37-7.73l5.27 8.54-3.95-9.4a11.2 11.2 0 0115 15.53z" fill="#028074" opacity=".1"/><path d="M893.6 457.72a11 11 0 01-3 3.28h-12.19v.32h-12.42c0-.11 0-.21.08-.32a11 11 0 011.22-2.89 11.14 11.14 0 015.6-4.71c-.1-.81 2.31-.7 5.52-.16 6.28 1.06 15.62 3.77 15.19 4.48zm-71.45-11.91a11.11 11.11 0 005.61 4.71 11.43 11.43 0 00-.05 2.41l9-.54-8.76 1.92a11.27 11.27 0 004.32 6.66h12.21v.32h12.43c0-.11-.06-.21-.08-.32a11.71 11.71 0 00-1.22-2.89 11.2 11.2 0 00-5.61-4.71 11.19 11.19 0 00-7.11-11.88 11.38 11.38 0 00.1-1.54l-5.79 2.28 5.72-3.36a11.18 11.18 0 00-4.37-7.73l-5.27 8.54 3.95-9.4a11.2 11.2 0 00-15 15.53z" fill="#028074" opacity=".1"/><path d="M829.26 457.72a11 11 0 003 3.28h12.21v.32h12.43c0-.11-.06-.21-.08-.32a11.71 11.71 0 00-1.22-2.89 11.2 11.2 0 00-5.61-4.71c.1-.81-2.31-.7-5.52-.16-6.3 1.06-15.67 3.77-15.21 4.48z" fill="#028074" opacity=".1"/><path fill="#464353" d="M852.51 412.45h20.11v22.4h-20.11z"/><path opacity=".1" d="M852.51 412.45h20.11v22.4h-20.11z"/><path fill="#a1616a" d="M843.94 455.35l-.41 5.82h5.74l.36-7.69-5.69 1.87zm30.24 0l-.87 5.82h5.26l.33-7.69-4.72 1.87zm-16.65-31.69s-.2 2.91-.9 3.67 6.25 7.49 11.72.84c0 0-2.35-2-1.8-4.24s-9.02-.27-9.02-.27z"/><path d="M857.53 423.66s-.2 2.91-.9 3.67 6.25 7.49 11.72.84c0 0-2.35-2-1.8-4.24s-9.02-.27-9.02-.27z" opacity=".1"/><circle cx="862.56" cy="416.2" r="10.06" fill="#a1616a"/><path d="M862.04 429.9s-4.22-.07-4.85-3.92a25.72 25.72 0 01-2.64 2c-.41.14-4.44 2.42-5.2 2.56a4.29 4.29 0 00-2 1 8.73 8.73 0 00-3.33 6.52c-.14 4.51-.69 13.32-.69 13.32l.21 3.19v2.08s3.74 1 6-1c0 0 0-.76.42-1s.48-1.25.41-1.67a16.22 16.22 0 010-1.87 1.34 1.34 0 00.56.83 4.27 4.27 0 01.14 1.74c-.21.41-.42 1.38-.21 1.59a1 1 0 01-.14 1.18 6.88 6.88 0 00-.9 1.74s-.21 1.24-.42 1.38a5.77 5.77 0 00-.48 1.6h25a24.06 24.06 0 01-1-3.89c.07-.62-.62-3.19-.14-3.88a5.32 5.32 0 001.11-3.19l.28 2.7-.76 6s4.64 1.46 5.13.55a32.07 32.07 0 001.18-4.85s1.11-5 1.39-5.69.9-14.56-2.85-16.57-10.82-5.47-11-5.3a4.65 4.65 0 01-5.22 2.85z" fill="#028074"/><path d="M849.99 443.46a5 5 0 00-.86 3.51 9.71 9.71 0 001.18 3.48m23.97-6.04a10.57 10.57 0 01.42 1.56 4.75 4.75 0 01-.66 3.92" fill="none" stroke="#000" stroke-miterlimit="10" opacity=".1"/><path d="M858.06 409.32a3.33 3.33 0 012.35.24 12.3 12.3 0 002.24.89c.52.11 1 .11 1.58.19a4.92 4.92 0 013.94 3.85c.45 2.46-1 4.88-1 7.39a6.18 6.18 0 001.43 3.93 11.6 11.6 0 012 2.39c.29.64.35 1.37.63 2a5.16 5.16 0 002.84 2.42 19.36 19.36 0 013.47 1.56c2 1.33 3.18 3.88 5.5 4.43a.92.92 0 00.73 0 .9.9 0 00.34-.7 3.27 3.27 0 00-.93-2.69c-.57-.57-1.4-1-1.58-1.77s.3-1.43.56-2.13c.83-2.27-.55-4.74-2.12-6.58s-3.45-3.66-3.83-6a15.79 15.79 0 01-.09-2.38 15.79 15.79 0 00-.84-4.81 7.07 7.07 0 00-1.2-2.31c-.5-.6-1.14-1.06-1.66-1.64a24.7 24.7 0 01-1.86-3 9 9 0 00-7.35-4.13c-2.81 0-5.47 1.24-7.85 2.73a6.73 6.73 0 00-2.22 1.95c-1 1.59-.7 3.69-1.28 5.49s-1.95 3.13-2.43 4.89a3.43 3.43 0 00-.07 1.59 8.14 8.14 0 00.71 1.6 11.91 11.91 0 01.89 4.05c.15 1.68.22 3.49-.66 4.92a8.24 8.24 0 01-2.5 2.12 4.87 4.87 0 003.49 1.07c1.9.08 4.1 0 5.28-1.5a5.24 5.24 0 00.8-3.65 15.35 15.35 0 00-.84-4.08c-.65-1.85-1.65-3.6-1.94-5.54a5.22 5.22 0 011-4c.36-.45 1-.68 1.3-1.16.38-.64.27-1.31 1.17-1.63z" fill="#464353"/><path d="M850.07 418.59a11.91 11.91 0 01.89 4.05c0 .44.07.89.08 1.34a13.76 13.76 0 000-2.94 11.81 11.81 0 00-.89-4 9 9 0 01-.71-1.59 3.38 3.38 0 00-.07 1.58 8.14 8.14 0 00.7 1.56zm6.59 9.22c-1.18 1.49-3.38 1.58-5.28 1.51a7.82 7.82 0 01-2.37-.36c-.38.31-.79.6-1.19.88a4.87 4.87 0 003.49 1.07c1.9.08 4.1 0 5.28-1.5a5 5 0 00.82-3.41 3.83 3.83 0 01-.75 1.81zm25.01 4a1.61 1.61 0 00.12.33c.12-.28.26-.57.37-.86a4.14 4.14 0 00.2-2.06 4.12 4.12 0 01-.13.47c-.26.7-.73 1.4-.56 2.12zm-13.44-16.84a6.25 6.25 0 000-2.07 4.91 4.91 0 00-3.94-3.85c-.53-.09-1.06-.09-1.58-.19a13.06 13.06 0 01-2.24-.89 3.33 3.33 0 00-2.35-.25c-.9.32-.79 1-1.19 1.66-.29.48-.94.72-1.3 1.16a5.17 5.17 0 00-1 3.69 4.51 4.51 0 01.93-2.09c.36-.45 1-.68 1.3-1.16.4-.67.29-1.34 1.19-1.66a3.33 3.33 0 012.35.24 12.3 12.3 0 002.24.89c.52.11 1 .11 1.58.19a4.92 4.92 0 013.94 3.85 3.93 3.93 0 01.07.48zm15.57 22.01a1 1 0 01-.73 0c-2.32-.55-3.52-3.1-5.5-4.43a20.87 20.87 0 00-3.47-1.56 5.14 5.14 0 01-2.84-2.41c-.28-.65-.34-1.37-.63-2a11.65 11.65 0 00-2-2.39 6.23 6.23 0 01-1.44-3.51 7.68 7.68 0 00-.09 1.17 6.18 6.18 0 001.5 3.96 11.6 11.6 0 012 2.39c.29.64.35 1.37.63 2a5.16 5.16 0 002.84 2.42 19.36 19.36 0 013.47 1.56c2 1.33 3.18 3.88 5.5 4.43a.92.92 0 00.73 0 .91.91 0 00.34-.7 3.3 3.3 0 00-.06-1.13.61.61 0 01-.25.2z" opacity=".1"/><path fill="#028074" opacity=".1" d="M827.91 403.28h12.86v18.37h-12.86z"/><path fill="#028074" opacity=".1" d="M829.75 405.91h9.18v13.12h-9.18zm53.26.13h21.12v11.02h-21.12z"/><path fill="#028074" opacity=".1" d="M885.77 407.48h15.61v8.15h-15.61z"/></svg>