<svg data-name="Layer 1" xmlns="http://www.w3.org/2000/svg" width="1027.496" height="696.059" viewBox="0 0 1027.496 696.059"><circle cx="696.248" cy="355.702" r="76.752" fill="#028074" opacity=".4"/><path fill="#3f3d56" d="M270 461.902h428v116H270z"/><path d="M670.587 174.506l-17.09 8.088 15.125-11.31a85.352 85.352 0 00-8.258-10.867l-74.117 18.422 66.948-25.538a85.339 85.339 0 00-9.722-7.41l-112.936 18.19A84.64 84.64 0 00512 216.902h170a84.594 84.594 0 00-11.413-42.395zm13.536-124.311A495.972 495.972 0 00466 0C312.17 0 174.639 69.753 83.29 179.349c156.426-34.275 428.777-93.606 600.833-129.154z" fill="#f2f2f2"/><path fill="#2f2e41" d="M0 693.902h1020v2H0z"/><path d="M595.864 216.902L538 130.952s87.631 30.592 77.686 85.95z" fill="#3f3d56"/><path d="M598.136 216.902L656 130.952s-87.631 30.592-77.686 85.95z" fill="#028074"/><path d="M698.5 695.902h-429v-640h429zm-427-2h425v-636h-425z" fill="#2f2e41"/><path fill="#2f2e41" d="M271 71.083h427v2H271z"/><circle cx="282" cy="63.902" r="4" fill="#028074"/><circle cx="293" cy="63.902" r="4" fill="#028074"/><circle cx="304" cy="63.902" r="4" fill="#028074"/><path fill="#028074" d="M286 84.902h18v10h-18zm0 79h88v10h-88z"/><path fill="#f2f2f2" d="M687 94.901h-88v-10h88zm-401 86.001h148v6H286zm0 13h140v6H286zm0 13h102v6H286zm34 178h58v6h-58zm0 13h54.865v6H320zm0 13h39.973v6H320zm135-26h58v6h-58zm0 13h54.865v6H455zm0 13h39.973v6H455zm140-26h58v6h-58zm0 13h54.865v6H595zm0 13h39.973v6H595z"/><path fill="#028074" d="M410 611.902h88v10h-88z"/><path fill="#f2f2f2" d="M410 628.902h148v6H410zm0 13h140v6H410zm0 13h102v6H410z"/><path fill="#028074" opacity=".3" d="M312.5 271.902h348v2h-348zm-.5 35h74v66h-74z"/><path fill="#3f3d56" d="M447 306.902h74v66h-74zm140 0h74v66h-74z"/><path d="M474.359 372.625l-.977-.02c.021-1.08.632-26.56 10.663-33.604l.56.8c-9.626 6.758-10.242 32.564-10.246 32.824z" fill="#028074"/><circle cx="489.206" cy="333.798" r="4.881" fill="#028074"/><path d="M488.22 351.034a15.198 15.198 0 01-7.842.338 13.85 13.85 0 0114.24-4.884 15.198 15.198 0 01-6.399 4.546zm126.139 21.591l-.977-.02c.021-1.08.632-26.56 10.663-33.604l.56.8c-9.626 6.758-10.242 32.564-10.246 32.824z" fill="#028074"/><circle cx="629.206" cy="333.798" r="4.881" fill="#028074"/><path d="M628.22 351.034a15.198 15.198 0 01-7.842.338 13.85 13.85 0 0114.24-4.884 15.198 15.198 0 01-6.399 4.546zM286 498.902h88v10h-88z" fill="#028074"/><path fill="#f2f2f2" d="M286 515.902h148v6H286zm0 13h140v6H286zm0 13h102v6H286z"/><circle cx="611.752" cy="512.702" r="31.248" fill="#028074" opacity=".4"/><circle cx="553.92" cy="527.626" r="21.92" fill="#028074" opacity=".4"/><circle cx="167.5" cy="582.402" r="79" fill="#2f2e41"/><path fill="#2f2e41" d="M131.5 644.402h24v43h-24zm48 0h24v43h-24z"/><ellipse cx="151.5" cy="687.902" rx="20" ry="7.5" fill="#2f2e41"/><ellipse cx="199.5" cy="686.902" rx="20" ry="7.5" fill="#2f2e41"/><circle cx="169.5" cy="562.402" r="27" fill="#fff"/><circle cx="169.5" cy="550.402" r="9" fill="#3f3d56"/><path d="M90.867 508.934c-6.379-28.567 14.012-57.434 45.544-64.475s62.265 10.41 68.644 38.978-14.518 39.104-46.05 46.145-61.759 7.92-68.138-20.648z" fill="#028074"/><ellipse cx="313.528" cy="596.957" rx="39.5" ry="12.4" transform="rotate(-65.077 190.49 613.566)" fill="#2f2e41"/><ellipse cx="168.528" cy="620.957" rx="12.4" ry="39.5" transform="rotate(-27.893 -79.903 743.63)" fill="#2f2e41"/><ellipse cx="906.255" cy="625.623" rx="12.4" ry="39.5" transform="rotate(-21.078 589.082 806.44)" fill="#2f2e41"/><circle cx="893.19" cy="583.104" r="79" fill="#2f2e41"/><path fill="#2f2e41" d="M929.48 687.999l-24 .067-.12-43 24-.067zm-47.997.138l-24 .068-.12-43 24-.067z"/><ellipse cx="995.737" cy="790.529" rx="20" ry="7.5" transform="rotate(-.16 -35451.447 31531.957)" fill="#2f2e41"/><ellipse cx="947.734" cy="789.664" rx="20" ry="7.5" transform="rotate(-.16 -35499.445 31531.093)" fill="#2f2e41"/><circle cx="891.134" cy="563.109" r="27" fill="#fff"/><circle cx="891.134" cy="563.109" r="9" fill="#3f3d56"/><path d="M969.616 509.422c6.299-28.586-14.173-57.395-45.724-64.347s-62.236 10.584-68.535 39.17 14.628 39.062 46.18 46.015 61.78 7.747 68.08-20.838z" fill="#028074"/><ellipse cx="1068.319" cy="648.169" rx="39.5" ry="12.4" transform="rotate(-25.535 800.187 787.505)" fill="#2f2e41"/><path d="M932.074 611.495c.021 7.732-19.844 23.056-41.936 23.118s-42.865-21.648-42.887-29.38 20.718 1.442 42.809 1.38 41.992-2.85 42.014 4.882z" fill="#fff"/><circle cx="917.248" cy="468.702" r="110.248" fill="#028074" opacity=".4"/><circle cx="190.405" cy="348.59" r="79" fill="#2f2e41"/><path fill="#2f2e41" d="M143.937 403.186l23.616 4.275-7.66 42.312-23.616-4.275zm47.232 8.551l23.616 4.275-7.66 42.312-23.616-4.275z"/><ellipse cx="285.687" cy="563.475" rx="7.5" ry="20" transform="rotate(-49.739 132.57 605.527)" fill="#2f2e41"/><ellipse cx="239.439" cy="555.103" rx="7.5" ry="20" transform="rotate(-49.739 86.321 597.155)" fill="#2f2e41"/><circle cx="195.936" cy="329.266" r="27" fill="#fff"/><circle cx="207.032" cy="319.588" r="9" fill="#3f3d56"/><path d="M128.085 262.647c-1.188-29.247 24.019-54.02 56.3-55.331s59.415 21.335 60.603 50.582-21.252 35.892-53.534 37.203-62.181-3.207-63.37-32.454z" fill="#028074"/><ellipse cx="349.603" cy="436.168" rx="39.5" ry="12.4" transform="rotate(-12.91 -144.159 766.354)" fill="#2f2e41"/><ellipse cx="194.528" cy="461.957" rx="39.5" ry="12.4" transform="rotate(-12.91 -299.233 792.143)" fill="#2f2e41"/><path d="M168.707 379.723a18 18 0 0035.425 6.413c1.77-9.782-5.793-13.244-15.575-15.015s-18.079-1.18-19.85 8.602z" fill="#fff"/><path fill="#3f3d56" d="M305.535 263.167l70.883 21.25-18.953 63.22-70.883-21.25z"/><path d="M312.868 333.977l-.93-.298c.33-1.03 8.232-25.261 19.863-29.127l.308.926c-11.162 3.71-19.162 28.252-19.241 28.5z" fill="#028074"/><circle cx="338.24" cy="301.05" r="4.881" fill="#028074"/><path d="M332.345 317.276a15.198 15.198 0 01-7.609-1.927 13.85 13.85 0 0115.043-.59 15.198 15.198 0 01-7.434 2.517z" fill="#028074"/></svg>