<svg data-name="Layer 1" xmlns="http://www.w3.org/2000/svg" xmlns:xlink="http://www.w3.org/1999/xlink" width="871.909" height="596.6" viewBox="0 0 871.909 596.6"><defs><linearGradient id="b" x1="435.954" y1="161.227" x2="435.954" gradientUnits="userSpaceOnUse"><stop offset="0" stop-color="gray" stop-opacity=".25"/><stop offset=".535" stop-color="gray" stop-opacity=".12"/><stop offset="1" stop-color="gray" stop-opacity=".1"/></linearGradient><linearGradient id="c" x1="895.456" y1="298.735" x2="895.456" y2="178.444" gradientUnits="userSpaceOnUse"><stop offset="0" stop-color="#b3b3b3" stop-opacity=".25"/><stop offset=".535" stop-color="#b3b3b3" stop-opacity=".1"/><stop offset="1" stop-color="#b3b3b3" stop-opacity=".05"/></linearGradient><linearGradient id="a" x1="858.283" y1="221.343" x2="858.283" y2="215.554" gradientUnits="userSpaceOnUse"><stop offset="0" stop-opacity=".12"/><stop offset=".551" stop-opacity=".09"/><stop offset="1" stop-opacity=".02"/></linearGradient><linearGradient id="d" x1="884.876" y1="214.701" x2="884.876" y2="196.998" xlink:href="#a"/></defs><path fill="url(#b)" d="M0 0h871.909v161.227H0z"/><path fill="#fff" d="M5.091 5.277h860.453v147.379H5.091z"/><path fill="#f5f5f5" d="M57.939 35.365h500.194v87.713H57.939z"/><path d="M916.212 192.662a46.319 46.319 0 10-7.578 70.553l33.484 34.829a2.254 2.254 0 003.187.062l8.344-8.022a2.254 2.254 0 00.063-3.187l-33.484-34.828a46.322 46.322 0 00-4.016-59.407zm-10.429 55.985a33.13 33.13 0 11.922-46.845 33.131 33.131 0 01-.922 46.845z" transform="translate(-164.046 -151.7)" fill="url(#c)"/><path d="M858.283 215.554c-3.726 0-3.732 5.79 0 5.79 3.725 0 3.731-5.79 0-5.79z" transform="translate(-164.046 -151.7)" fill="url(#a)"/><path d="M884.254 197.005a27.83 27.83 0 00-24.005 12.4c-1.583 2.477 2.911 4.666 4.486 2.202 4.017-6.288 11.651-10.28 19.902-10.074a25.36 25.36 0 0120.695 12.037c1.582 2.607 5.726.236 4.154-2.354-5.054-8.33-14.872-13.976-25.232-14.21z" transform="translate(-164.046 -151.7)" fill="url(#d)"/><path d="M752.167 35.87a46.319 46.319 0 10-7.579 70.554l33.484 34.828a2.254 2.254 0 003.187.063l8.345-8.023a2.254 2.254 0 00.062-3.186l-33.484-34.829a46.322 46.322 0 00-4.015-59.407zm-10.43 55.985a33.13 33.13 0 11.923-46.845 33.131 33.131 0 01-.922 46.845z" fill="#028074"/><path d="M694.237 58.762c-3.725 0-3.732 5.79 0 5.79 3.726 0 3.732-5.79 0-5.79zm25.972-18.548a27.83 27.83 0 00-24.006 12.399c-1.582 2.477 2.912 4.666 4.486 2.202 4.017-6.288 11.652-10.28 19.902-10.073a25.36 25.36 0 0120.695 12.036c1.582 2.608 5.726.237 4.154-2.354-5.054-8.329-14.871-13.976-25.231-14.21z" fill="#028074"/><path fill="#e0e0e0" d="M4.909 240.6h867v59h-867zm0 99h867v59h-867zm0 99h867v59h-867zm0 99h867v59h-867z"/></svg>